<svg version="1.1" id="Layer_1" xmlns="http://www.w3.org/2000/svg" xmlns:xlink="http://www.w3.org/1999/xlink" x="0px" y="0px"
	 width="100%" viewBox="0 0 1747 1536" enable-background="new 0 0 1747 1536" xml:space="preserve">
<path fill="#5761D0" opacity="1.000000" stroke="none" 
	d="
M500.865540,901.705017 
	C488.778809,908.791626 477.024231,915.731018 465.166107,922.488647 
	C462.307770,924.117493 460.899261,925.872986 460.780121,929.448303 
	C460.301971,943.798035 449.998871,953.453247 435.969238,953.200745 
	C422.623383,952.960693 412.638184,942.462708 412.197784,928.575684 
	C412.142761,926.841980 410.909576,924.415161 409.476746,923.562805 
	C376.284729,903.816711 342.960449,884.293091 309.760803,864.559692 
	C306.623413,862.694885 304.434540,864.111694 301.884399,865.153137 
	C288.258850,870.718018 273.859375,864.881226 268.800629,851.739441 
	C264.795197,841.333923 268.416321,829.542053 278.096283,823.211609 
	C281.477295,821.000488 282.578400,818.617615 282.560547,814.701172 
	C282.390900,777.548523 282.359131,740.394836 282.452179,703.241882 
	C282.461975,699.319702 281.240326,696.974792 277.919006,694.747131 
	C267.085144,687.480896 263.953552,673.248962 270.290985,662.035217 
	C276.508240,651.034119 289.480621,646.612122 301.339966,651.836975 
	C304.957306,653.430725 307.633789,653.174500 311.004120,651.157104 
	C342.868286,632.084045 374.821136,613.158630 406.812317,594.299011 
	C410.167999,592.320801 412.085327,590.328064 412.487305,585.981384 
	C413.543884,574.555969 421.723663,565.727661 432.155884,563.520325 
	C441.552307,561.532227 451.816864,565.583435 456.664764,574.133179 
	C458.880676,578.041199 459.346863,582.911438 460.889648,587.244507 
	C461.590942,589.214050 462.522583,591.700134 464.124329,592.662170 
	C496.952606,612.379150 529.901794,631.894531 562.796448,651.501282 
	C565.904907,653.354004 568.661255,653.535278 572.150208,652.069824 
	C584.642395,646.822693 597.057922,651.377869 603.185608,663.051941 
	C609.145752,674.406860 605.768616,687.940247 594.760010,695.064209 
	C591.635315,697.086365 590.721985,699.287964 590.728516,702.758972 
	C590.798950,740.245667 590.774597,777.732727 590.688843,815.219421 
	C590.681030,818.640015 591.539429,820.899231 594.677368,822.945435 
	C605.494507,829.999146 608.927795,843.575684 603.127014,854.538635 
	C597.227539,865.687866 583.799744,870.606567 571.824463,865.341309 
	C567.425781,863.407288 564.269470,863.920654 560.393921,866.259705 
	C540.725769,878.130371 520.918335,889.770264 500.865540,901.705017 
M404.354584,891.870789 
	C404.354584,891.870789 404.363861,891.805847 404.320740,891.062500 
	C403.852997,889.998474 403.480469,888.879517 402.903625,887.878357 
	C389.553558,864.708374 376.074402,841.611572 362.922882,818.329590 
	C360.835785,814.634888 359.045593,814.704895 356.014008,816.524963 
	C343.498688,824.038696 330.923340,831.452515 318.413757,838.975769 
	C314.813324,841.141052 314.904114,845.549133 318.514954,847.699219 
	C342.670166,862.082031 366.824982,876.465576 391.012726,890.793579 
	C397.034515,894.360718 403.176605,897.724609 409.263428,901.181885 
	C409.517700,900.908630 409.771973,900.635376 410.026245,900.362061 
	C408.154297,897.511963 406.282318,894.661804 404.354584,891.870789 
M400.795654,631.147095 
	C403.667694,626.218994 406.539734,621.290894 409.411774,616.362793 
	C407.788605,616.174927 406.881653,616.512817 406.057190,616.992493 
	C376.985596,633.908447 347.911621,650.820374 318.868256,667.784607 
	C314.783112,670.170837 314.832031,677.293274 318.905762,679.729004 
	C324.480011,683.061951 330.125336,686.276367 335.749817,689.524902 
	C343.620819,694.070923 351.500732,698.601501 359.619141,703.278259 
	C360.894440,701.322754 361.863739,699.992249 362.673401,698.570923 
	C370.834595,684.244080 379.004547,669.921997 387.098145,655.557007 
	C391.497650,647.748474 395.755005,639.859802 400.240387,631.814758 
	C400.240387,631.814758 400.222107,631.562500 400.795654,631.147095 
M318.560028,816.165955 
	C321.680542,814.672729 324.924988,813.391724 327.902252,811.653137 
	C354.647217,796.035522 381.342987,780.333679 408.060364,764.668762 
	C410.686127,763.129211 412.740723,761.638367 413.000519,757.940369 
	C413.896179,745.189575 423.959839,735.810059 436.221466,735.745544 
	C449.149048,735.677551 459.378418,745.193115 460.747314,758.131836 
	C460.969879,760.235168 462.309875,763.034973 464.007202,764.046387 
	C492.750244,781.174927 521.628052,798.077454 550.494141,814.999084 
	C551.805908,815.768066 553.288391,816.245911 554.691406,816.859375 
	C554.632690,814.426086 553.874084,812.819702 553.012939,811.270325 
	C541.208496,790.032471 529.395752,768.799255 517.572144,747.572083 
	C512.229919,737.981079 512.217041,737.988342 521.906128,732.575745 
	C527.980103,729.182617 528.023438,729.158203 531.442505,735.243713 
	C543.998962,757.592224 556.518738,779.961243 569.078796,802.307739 
	C569.636230,803.299500 570.453613,804.145264 571.994873,806.167847 
	C571.994873,803.011780 571.994141,801.360168 571.994995,799.708618 
	C572.012146,767.552246 571.935242,735.395203 572.153198,703.240173 
	C572.184204,698.659058 571.004517,695.588867 566.559387,693.389465 
	C563.427185,688.213867 560.294983,683.038269 557.486267,677.240967 
	C558.399414,671.633850 556.052002,668.363586 551.034912,665.494629 
	C530.822205,653.936340 510.970825,641.747986 490.826477,630.067444 
	C482.530365,625.257080 473.831268,621.141785 465.134583,616.427551 
	C464.999603,616.433044 464.864624,616.438477 464.729645,616.443970 
	C464.804138,616.638550 464.878632,616.833130 464.955627,617.755554 
	C472.923401,631.968201 480.907166,646.171875 488.853821,660.396301 
	C495.090851,671.560608 501.282043,682.750488 507.775726,694.436768 
	C502.583649,697.506470 497.655792,700.419922 492.241486,703.620972 
	C476.971191,676.791443 461.984070,650.459534 446.996979,624.127625 
	C446.501556,624.242249 446.006104,624.356934 445.510681,624.471619 
	C445.510681,658.094238 445.510681,691.716919 445.510681,725.070435 
	C439.172180,725.070435 433.734955,725.070435 427.274170,725.070435 
	C427.274170,691.389099 427.274170,658.146179 427.274170,624.903259 
	C425.290802,625.826599 424.518158,626.865295 423.887665,627.984070 
	C409.013702,654.376160 394.261078,680.837769 379.188538,707.115845 
	C376.692932,711.466797 377.067932,713.484802 381.493683,715.921814 
	C391.810516,721.602783 401.836060,727.812683 411.861694,733.738647 
	C408.749237,739.193970 405.837769,744.296997 402.697601,749.800903 
	C390.876953,742.904541 379.009216,735.980713 366.551788,728.712891 
	C350.151306,758.114136 334.033844,787.007996 317.881561,816.044556 
	C317.881561,816.044556 317.962646,816.106628 317.962646,816.106628 
	C317.962646,816.106628 317.835449,815.841797 318.560028,816.165955 
M474.587494,791.885620 
	C468.255920,788.216125 461.868164,784.638916 455.617371,780.836670 
	C452.661224,779.038513 450.174438,778.766724 446.916168,780.503235 
	C440.017944,784.179565 432.684662,784.094543 425.803711,780.512817 
	C422.687744,778.890991 420.396362,779.025085 417.558533,780.700562 
	C404.671875,788.308960 391.676086,795.733521 378.852417,803.445129 
	C377.928833,804.000488 377.299957,806.731384 377.844147,807.752930 
	C380.327728,812.415161 383.413971,816.751160 386.039062,821.344177 
	C396.193787,839.111511 406.223328,856.950378 416.370239,874.722229 
	C419.512634,880.226013 422.879578,885.601685 426.143738,891.035950 
	C426.589233,890.902527 427.034698,890.769165 427.480194,890.635742 
	C427.480194,858.126831 427.480194,825.617920 427.480194,792.797180 
	C433.774902,792.797180 439.372040,792.797180 445.968872,792.797180 
	C445.968872,825.422852 445.968872,858.004456 445.968872,890.586060 
	C446.409882,890.655090 446.850922,890.724060 447.291931,890.793030 
	C448.101044,889.593079 449.002960,888.444824 449.704498,887.184875 
	C454.882446,877.885254 459.938141,868.516602 465.189148,859.258728 
	C474.382416,843.050354 483.683472,826.903137 492.948669,810.735596 
	C496.184540,805.089172 496.141571,804.791016 490.648285,801.467590 
	C485.523315,798.366882 480.363800,795.323364 474.587494,791.885620 
M548.160400,851.648132 
	C550.027405,850.557434 551.910828,849.493774 553.758240,848.370850 
	C558.710999,845.360413 558.625366,841.164124 553.551331,838.174988 
	C541.375427,831.002136 529.132324,823.940369 517.050781,816.612000 
	C513.425171,814.412842 511.469971,814.684082 509.292480,818.598694 
	C495.146423,844.029724 480.770111,869.332642 466.504913,894.697571 
	C465.505188,896.475159 464.792877,898.414368 463.946899,900.278442 
	C464.278473,900.545410 464.610046,900.812378 464.941650,901.079346 
	C492.469879,884.725220 519.998108,868.371094 548.160400,851.648132 
M301.032379,725.499634 
	C301.032379,751.720581 301.032379,777.941467 301.032379,804.162415 
	C302.776642,803.649536 303.423615,802.983337 303.867371,802.201721 
	C318.912445,775.706360 333.901672,749.179199 349.016815,722.723938 
	C350.738525,719.710510 349.227509,718.623352 346.995422,717.332214 
	C334.598633,710.161438 322.244690,702.916565 309.848694,695.744385 
	C305.244446,693.080383 300.999634,695.602051 300.971161,701.007202 
	C300.929901,708.837952 300.978149,716.669189 301.032379,725.499634 
z"/>
<path fill="#5863D4" opacity="1.000000" stroke="none" 
	d="
M1343.552856,748.895752 
	C1343.234253,765.331482 1339.304932,780.004700 1328.316650,792.138855 
	C1316.272827,805.438782 1300.663208,809.917480 1283.367310,810.209900 
	C1260.022461,810.604614 1240.600708,802.865967 1227.176880,782.931458 
	C1209.631226,756.876099 1211.024658,708.263977 1230.163818,683.438232 
	C1245.474487,663.578308 1266.400879,657.422119 1290.456909,659.873047 
	C1317.750122,662.653870 1335.528076,678.403259 1341.667969,704.875000 
	C1342.031982,706.444519 1342.166138,708.067322 1342.510254,710.347412 
	C1332.007324,710.347412 1322.060059,710.426880 1312.118408,710.220947 
	C1311.154053,710.200989 1309.705688,708.571899 1309.361450,707.425659 
	C1305.804688,695.578674 1297.792480,689.023254 1285.707520,687.502869 
	C1272.648926,685.859985 1261.127075,689.656921 1255.102783,701.621521 
	C1243.807739,724.053772 1242.943481,747.332092 1256.009766,769.376221 
	C1265.404663,785.226257 1293.335449,787.487122 1305.114624,773.914429 
	C1308.521484,769.988831 1310.015869,764.303162 1311.981812,759.266174 
	C1313.106934,756.383911 1311.435425,755.034363 1308.395630,755.057739 
	C1300.736938,755.116760 1293.077271,755.067444 1285.418213,755.020508 
	C1283.804688,755.010681 1282.192261,754.825256 1280.110107,754.690308 
	C1280.110107,746.791565 1279.992798,739.323120 1280.254883,731.867981 
	C1280.288574,730.908875 1282.284302,729.224304 1283.382202,729.215210 
	C1302.367920,729.057434 1321.356079,729.045471 1340.340454,729.278870 
	C1341.456909,729.292542 1343.402466,731.596130 1343.493530,732.934021 
	C1343.843384,738.070984 1343.594360,743.248657 1343.552856,748.895752 
z"/>
<path fill="#5763D3" opacity="1.000000" stroke="none" 
	d="
M1196.984863,807.844116 
	C1191.493164,807.835632 1186.491821,807.676208 1181.504883,807.875793 
	C1178.142334,808.010498 1176.408936,806.790405 1175.390991,803.503357 
	C1173.027710,795.873169 1170.160400,788.399658 1167.768677,780.777588 
	C1166.664062,777.257568 1164.935181,775.687439 1161.031982,775.751770 
	C1146.548218,775.990662 1132.056274,776.082214 1117.573730,775.847229 
	C1113.034180,775.773621 1111.062378,777.510071 1109.955078,781.680359 
	C1107.990967,789.077332 1105.473145,796.326172 1103.447144,803.708374 
	C1102.598755,806.799866 1101.131470,807.981567 1097.855957,807.914185 
	C1088.251953,807.716309 1078.641357,807.843750 1068.076294,807.843750 
	C1071.061279,799.248291 1073.763062,791.453674 1076.474731,783.662598 
	C1090.045654,744.670654 1103.670410,705.697266 1117.109619,666.659973 
	C1118.401245,662.908325 1120.115967,661.433594 1124.173462,661.543152 
	C1134.659180,661.826294 1145.157593,661.654724 1155.650879,661.633484 
	C1158.093872,661.628540 1159.871826,661.888489 1160.902100,664.849121 
	C1177.042114,711.224548 1193.331909,757.547668 1209.578247,803.886108 
	C1209.896973,804.795532 1210.104126,805.744141 1210.689697,807.846130 
	C1205.920898,807.846130 1201.701172,807.846130 1196.984863,807.844116 
M1128.938721,723.421875 
	C1126.171021,731.719910 1123.403442,740.017944 1120.465210,748.827576 
	C1133.099609,748.827576 1144.873535,748.827576 1157.334351,748.827576 
	C1151.208374,729.725952 1145.328979,711.393188 1139.449463,693.060425 
	C1139.029907,693.112000 1138.610352,693.163574 1138.190674,693.215149 
	C1135.192627,703.033081 1132.194702,712.851013 1128.938721,723.421875 
z"/>
<path fill="#5763D3" opacity="1.000000" stroke="none" 
	d="
M1458.954224,689.285095 
	C1441.982788,689.452209 1425.011230,689.749512 1408.039795,689.742798 
	C1395.731445,689.737915 1395.734741,689.558289 1395.699219,701.926331 
	C1395.686768,706.254333 1395.849121,710.594727 1395.574951,714.906799 
	C1395.323364,718.863770 1396.896484,720.080688 1400.753418,720.042725 
	C1416.404541,719.888428 1432.060181,720.136108 1447.708984,719.896973 
	C1452.350952,719.825989 1454.238281,720.884521 1453.870361,725.953125 
	C1453.378662,732.726074 1453.748657,739.561584 1453.748657,747.269653 
	C1447.693970,747.269653 1441.787598,747.267517 1435.881226,747.270142 
	C1424.227295,747.275269 1412.570923,747.421936 1400.920776,747.215515 
	C1396.747681,747.141541 1395.369263,748.632874 1395.527466,752.719299 
	C1395.804443,759.869141 1395.907227,767.045349 1395.608276,774.190613 
	C1395.425781,778.554199 1396.809204,779.923218 1401.219604,779.873840 
	C1419.864380,779.665344 1438.514404,779.938232 1457.158569,779.708862 
	C1461.767700,779.652100 1463.347290,781.049561 1463.070190,785.637146 
	C1462.709351,791.610229 1462.854248,797.618286 1462.909790,803.610107 
	C1462.935181,806.356750 1462.323486,807.877136 1459.042847,807.861023 
	C1437.580200,807.755432 1416.116821,807.817627 1394.227051,807.486938 
	C1393.206787,807.313477 1392.613037,807.478027 1392.019409,807.642456 
	C1391.562988,807.691956 1391.106689,807.741455 1390.144043,807.415649 
	C1383.975220,806.361023 1378.328857,805.393677 1372.646240,805.077759 
	C1366.080322,804.712708 1366.010498,804.932129 1366.007690,798.258179 
	C1365.995850,769.940308 1366.000732,741.622498 1366.000122,713.304626 
	C1365.999756,698.645996 1366.017212,683.987244 1365.986084,669.328735 
	C1365.979858,666.440613 1366.139160,663.965332 1370.063477,663.992004 
	C1398.201172,664.183289 1426.340210,664.247192 1454.474976,664.630920 
	C1456.050781,664.652405 1458.852051,667.071899 1458.936890,668.502502 
	C1459.346069,675.406128 1459.019653,682.353333 1458.954224,689.285095 
z"/>
<path fill="#5B64BC" opacity="1.000000" stroke="none" 
	d="
M1482.444092,663.435669 
	C1484.656006,662.519958 1486.787476,661.527893 1488.932251,661.498169 
	C1497.921509,661.373779 1506.924805,661.329163 1515.899170,661.755249 
	C1517.923218,661.851379 1520.668091,663.473694 1521.695068,665.212219 
	C1529.904663,679.109558 1537.875122,693.151184 1545.730591,707.253601 
	C1552.614380,719.612000 1559.165894,732.156006 1566.095581,744.488037 
	C1567.152588,746.368835 1569.460205,747.546936 1571.189331,749.049988 
	C1571.848999,746.982483 1573.072998,744.917480 1573.082397,742.847046 
	C1573.198120,717.524109 1573.132324,692.200439 1573.128296,666.876953 
	C1573.128052,665.406189 1573.254639,663.935425 1573.347656,661.909668 
	C1583.780029,661.909668 1593.984619,661.909668 1604.962036,661.909668 
	C1604.962036,664.138672 1604.962280,666.079224 1604.962036,668.019836 
	C1604.957031,712.999329 1604.908569,757.978943 1605.024170,802.958130 
	C1605.034058,806.793518 1604.102051,808.264404 1600.050903,808.170166 
	C1591.230469,807.965027 1582.398193,808.167358 1573.572876,808.317749 
	C1570.234253,808.374634 1568.226318,807.181702 1566.497070,804.075562 
	C1551.050049,776.328735 1535.397583,748.696472 1519.769409,721.050781 
	C1519.009399,719.706116 1517.914062,718.551025 1516.974854,717.307678 
	C1516.474609,717.359558 1515.974365,717.411438 1515.473999,717.463318 
	C1515.122681,719.367615 1514.474121,721.270508 1514.465088,723.176392 
	C1514.343262,748.994812 1514.346191,774.813843 1514.233643,800.632263 
	C1514.198608,808.667053 1514.859497,807.938049 1506.985229,808.056030 
	C1500.326294,808.155701 1493.660889,808.016418 1487.008423,808.259644 
	C1483.183960,808.399536 1482.320679,806.789917 1482.330444,803.218872 
	C1482.415527,772.403442 1482.310791,741.587585 1482.294312,710.771851 
	C1482.286011,695.115234 1482.342651,679.458618 1482.444092,663.435669 
M1512.013672,727.505554 
	C1512.205688,721.698242 1512.397827,715.890930 1512.589966,710.083618 
	C1513.233887,709.944702 1513.877808,709.805847 1514.521729,709.666931 
	C1516.163940,711.167664 1518.319214,712.377441 1519.362915,714.217590 
	C1525.087402,724.309692 1530.474487,734.592224 1536.098999,744.742065 
	C1546.653198,763.788208 1557.245239,782.814087 1567.981323,801.757690 
	C1568.826904,803.249695 1570.880005,804.931641 1572.436890,804.998047 
	C1580.032593,805.322021 1587.664307,804.840698 1595.255737,805.209595 
	C1600.926392,805.485168 1602.103027,803.122986 1602.117065,797.875244 
	C1602.227905,756.249756 1602.633545,714.625122 1602.928101,673.000061 
	C1602.981812,665.427490 1601.482544,663.947510 1594.014404,663.968018 
	C1590.536621,663.977600 1587.051147,664.168457 1583.582642,664.000549 
	C1577.342163,663.698425 1575.986206,664.870117 1575.982788,671.268127 
	C1575.968872,697.091919 1576.041748,722.916077 1575.888916,748.738953 
	C1575.872925,751.427979 1575.203613,755.947693 1573.749023,756.446899 
	C1569.517334,757.899353 1568.252319,753.406067 1566.367676,750.632629 
	C1565.624878,749.539490 1565.159912,748.260010 1564.541626,747.079468 
	C1560.224487,738.836670 1556.058594,730.509827 1551.546021,722.375305 
	C1541.466309,704.204773 1531.151367,686.164673 1521.093262,667.982361 
	C1519.508057,665.116943 1517.624634,663.883240 1514.398315,663.937622 
	C1506.570068,664.069458 1498.729858,664.193665 1490.910889,663.894043 
	C1486.272095,663.716309 1484.853271,665.424072 1484.900635,669.963379 
	C1485.092773,688.396484 1484.977661,706.832703 1484.975464,725.267822 
	C1484.973511,741.210205 1484.972778,757.152527 1484.967773,773.094910 
	C1484.964966,782.341431 1484.995361,791.588196 1484.927979,800.834229 
	C1484.903687,804.173584 1486.656250,805.116394 1489.661987,805.052368 
	C1494.491333,804.949463 1499.324463,805.039551 1504.156006,805.023132 
	C1511.480469,804.998291 1512.009277,804.481323 1512.013916,796.978149 
	C1512.028320,774.153259 1512.015015,751.328308 1512.013672,727.505554 
z"/>
<path fill="#5F68C3" opacity="1.000000" stroke="none" 
	d="
M939.924194,707.998413 
	C939.926392,694.002014 940.138977,680.500671 939.823853,667.011658 
	C939.716431,662.411377 941.314636,661.438904 945.533508,661.495483 
	C965.857666,661.768005 986.185425,661.854309 1006.511841,661.837830 
	C1027.658325,661.820740 1046.940674,674.504272 1052.720093,695.638977 
	C1057.428833,712.857605 1051.855469,734.347412 1036.079590,745.107849 
	C1031.314209,748.358215 1031.352051,751.193909 1033.637451,755.745972 
	C1041.407349,771.222351 1048.888428,786.843750 1056.467773,802.415649 
	C1057.172241,803.862793 1057.790405,805.351929 1058.727783,807.444763 
	C1056.484619,807.666443 1054.895996,807.951233 1053.305908,807.959106 
	C1044.809570,808.001160 1036.311890,807.893860 1027.817017,808.014221 
	C1024.824463,808.056519 1023.090759,807.192810 1021.721924,804.239441 
	C1014.740967,789.177734 1007.322266,774.318237 1000.402161,759.229492 
	C998.724365,755.571106 996.519958,754.313843 992.797974,754.416077 
	C987.636963,754.557739 982.460632,754.638550 977.307129,754.397522 
	C973.228149,754.206726 971.732178,755.662048 971.777588,759.840637 
	C971.929688,773.835083 971.760437,787.833069 971.716003,801.829651 
	C971.710327,803.616333 971.715149,805.403015 971.715149,807.945068 
	C961.553650,807.945068 951.935730,808.056824 942.331055,807.751160 
	C941.484863,807.724182 940.042480,804.973267 940.030151,803.478027 
	C939.883972,785.816528 939.968262,768.153198 939.970154,750.490356 
	C939.971619,736.493042 939.943115,722.495667 939.924194,707.998413 
M1046.278687,787.142517 
	C1040.509766,775.159424 1034.908447,763.090576 1028.857056,751.251831 
	C1027.293457,748.192993 1027.954956,747.182983 1030.416504,745.326233 
	C1035.496582,741.494202 1041.176147,737.844116 1044.792603,732.813416 
	C1052.109497,722.635376 1053.793091,710.476135 1051.370605,698.422241 
	C1049.001709,686.635864 1042.321655,677.299927 1031.614258,670.918030 
	C1022.953308,665.755798 1013.517944,664.310059 1003.877380,664.100281 
	C987.413452,663.742065 970.936157,663.996765 954.464478,663.995300 
	C943.014526,663.994263 943.014404,663.995300 942.537109,675.376282 
	C942.523193,675.708618 942.510803,676.041443 942.513306,676.373962 
	C942.669617,697.186646 942.886108,717.999084 942.968445,738.812073 
	C943.046875,758.635254 942.979431,778.458984 942.988770,798.282471 
	C942.991760,804.535217 945.079285,806.348022 951.486755,805.819763 
	C955.290649,805.506104 959.124634,804.875183 962.902649,805.100037 
	C967.848450,805.394348 969.182739,803.371460 969.089050,798.698975 
	C968.841919,786.376831 968.950989,774.045776 969.063293,761.719543 
	C969.087280,759.089661 969.406311,756.359070 970.229004,753.887756 
	C970.586914,752.812561 972.554993,751.615723 973.802307,751.604187 
	C980.449707,751.542480 987.102234,752.014343 993.749390,751.946533 
	C997.902832,751.904053 1000.553894,753.272522 1002.369751,757.200439 
	C1009.205261,771.986755 1016.221497,786.691467 1023.379517,801.324280 
	C1024.178101,802.956665 1026.271118,804.977417 1027.837891,805.042847 
	C1036.498169,805.404724 1045.181519,805.216064 1055.087524,805.216064 
	C1051.807495,798.482910 1049.208008,793.146973 1046.278687,787.142517 
z"/>
<path fill="#5B64BC" opacity="1.000000" stroke="none" 
	d="
M916.064758,768.001892 
	C916.086182,780.159973 915.943787,791.821411 916.197998,803.474304 
	C916.282227,807.339722 914.958923,808.321655 911.317139,808.193359 
	C903.998779,807.935608 896.653870,807.836182 889.343262,808.175537 
	C884.849243,808.384155 883.733704,806.795288 883.751892,802.479675 
	C883.904236,766.338623 883.837708,730.196655 883.837158,694.054932 
	C883.836975,683.438599 883.837097,672.822205 883.837097,661.551025 
	C893.948364,661.551025 903.552185,661.557373 913.155945,661.547913 
	C917.002502,661.544067 916.124390,664.451843 916.126038,666.579712 
	C916.145752,691.227112 916.094910,715.874451 916.067322,740.521851 
	C916.057251,749.515198 916.059204,758.508606 916.064758,768.001892 
M885.999573,754.500000 
	C885.999695,760.492004 885.891724,766.486450 886.025024,772.475525 
	C886.227966,781.593689 886.593994,790.708313 886.899109,799.824158 
	C887.034851,803.877747 889.295654,805.217163 893.138916,805.067261 
	C897.958496,804.879333 902.805420,804.790405 907.613464,805.091492 
	C911.711304,805.348083 913.434692,803.432922 913.777039,799.736450 
	C913.960632,797.753235 914.009216,795.751587 914.009949,793.758301 
	C914.019287,767.880493 914.007446,742.002625 914.004272,716.124817 
	C914.002380,701.033997 914.006653,685.943115 914.006531,670.852295 
	C914.006531,670.020203 913.979797,669.187988 913.987183,668.356018 
	C914.015442,665.156738 912.292664,663.955505 909.257141,663.985718 
	C903.786865,664.040283 898.312683,664.084595 892.845337,663.937622 
	C888.466492,663.820007 886.342102,665.761230 886.294434,670.126953 
	C886.269104,672.452698 886.010803,674.776855 886.008972,677.101807 
	C885.988708,702.567871 885.998413,728.033936 885.999573,754.500000 
z"/>
<path fill="#B5B8BF" opacity="1.000000" stroke="none" 
	d="
M795.963806,906.368896 
	C793.959534,906.825928 791.980713,906.825928 789.510925,906.825928 
	C789.510925,898.066223 789.510925,889.501648 789.510925,880.553589 
	C780.688232,880.553589 772.353943,880.553589 763.012756,880.553589 
	C763.012756,888.029114 762.847412,895.301575 763.077454,902.561462 
	C763.206360,906.630554 762.066650,908.677063 757.234253,907.527161 
	C757.234253,888.505859 757.234253,869.337891 757.234253,849.686829 
	C758.890930,849.686829 760.506287,849.686829 762.586365,849.691650 
	C763.051025,857.796997 763.051025,865.897461 763.051025,874.342102 
	C772.158020,874.342102 780.546936,874.342102 789.340576,874.342102 
	C789.340576,866.250488 789.340576,858.202332 789.340576,849.882080 
	C791.653564,849.882080 793.566589,849.882080 795.989258,849.882080 
	C795.989258,868.681519 795.989258,887.296753 795.963806,906.368896 
z"/>
<path fill="#B8BBC2" opacity="1.000000" stroke="none" 
	d="
M1409.542114,891.986023 
	C1409.476929,893.065857 1409.411865,894.145691 1409.345215,895.940430 
	C1409.397461,897.098694 1409.451050,897.542053 1409.504639,897.985352 
	C1409.476318,898.443420 1409.448120,898.901489 1409.413574,900.064819 
	C1409.486206,901.843445 1409.565186,902.916809 1409.644165,903.990173 
	C1409.360229,906.645264 1409.076416,909.300415 1408.469727,912.636780 
	C1406.075562,923.087952 1390.799194,929.261169 1381.977295,920.707886 
	C1382.774414,918.831421 1383.557983,917.342712 1384.696533,915.967163 
	C1389.665161,918.789612 1394.432251,919.834778 1398.991577,916.274780 
	C1402.943726,913.188904 1403.105591,908.822266 1402.434570,904.079102 
	C1391.748779,910.100586 1382.833618,908.410950 1378.743530,898.985229 
	C1374.592773,889.419983 1374.794800,879.430420 1380.169067,870.243408 
	C1384.612061,862.648438 1394.625732,861.694458 1400.876221,867.974304 
	C1399.769775,869.067383 1398.884277,869.929138 1397.602783,870.731018 
	C1391.622314,868.904297 1387.624512,869.694275 1385.421753,873.845215 
	C1381.534058,881.171387 1381.579346,888.933655 1384.878174,896.419922 
	C1386.725098,900.610901 1390.556641,902.446716 1395.192627,901.611084 
	C1399.987793,900.746826 1402.808960,897.187500 1402.972290,892.069885 
	C1403.083618,888.582642 1402.835449,885.074768 1403.106445,881.604065 
	C1403.442993,877.292480 1402.264893,873.764771 1399.197998,871.017944 
	C1400.407471,870.222473 1401.253052,869.472290 1402.453125,868.614990 
	C1403.058716,867.284241 1403.309937,866.060608 1403.542358,864.928711 
	C1405.421509,864.928711 1407.154419,864.928711 1409.420410,864.928711 
	C1409.420410,870.838501 1409.420410,876.411316 1409.420410,881.984192 
	C1409.380493,882.441711 1409.340576,882.899170 1409.295410,884.070557 
	C1409.372314,885.851746 1409.454712,886.919067 1409.537109,887.986450 
	C1409.482910,888.441895 1409.428711,888.897400 1409.352295,890.000488 
	C1409.400757,891.094116 1409.471436,891.540039 1409.542114,891.986023 
M1381.943604,897.878235 
	C1381.943604,897.878235 1381.984253,898.010925 1382.090454,898.526184 
	C1382.474365,898.974365 1382.858398,899.422607 1383.242432,899.870850 
	C1383.425171,899.653931 1383.608032,899.437012 1383.790771,899.220093 
	C1383.197510,898.808044 1382.604370,898.395996 1381.943604,897.878235 
M1387.797729,920.767273 
	C1387.602417,920.760742 1387.406982,920.754211 1387.211670,920.747681 
	C1387.471191,920.835449 1387.730713,920.923279 1388.580322,921.399780 
	C1390.097900,921.620911 1391.615479,921.842041 1393.133057,922.063171 
	C1393.159424,921.705322 1393.185913,921.347534 1393.212280,920.989685 
	C1391.476807,920.989685 1389.741333,920.989685 1387.797729,920.767273 
M1405.006714,887.636536 
	C1405.043579,888.450073 1405.080444,889.263611 1405.117310,890.077148 
	C1405.461792,890.073730 1405.806396,890.070251 1406.150879,890.066772 
	C1406.150879,882.495850 1406.150879,874.924927 1406.150879,867.354004 
	C1405.768921,867.348206 1405.386841,867.342407 1405.004883,867.336670 
	C1405.004883,873.838440 1405.004883,880.340271 1405.006714,887.636536 
M1380.056519,886.727905 
	C1380.444946,883.506409 1380.833374,880.284851 1381.221802,877.063354 
	C1380.804688,877.053223 1380.387573,877.043152 1379.970459,877.033020 
	C1378.614746,883.059448 1378.116333,889.065552 1380.245361,895.009399 
	C1380.703979,894.975830 1381.162598,894.942261 1381.621216,894.908691 
	C1381.103760,892.441711 1380.586182,889.974731 1380.056519,886.727905 
M1405.181885,898.037170 
	C1404.919312,903.678955 1404.656860,909.320740 1404.394409,914.962524 
	C1404.804688,914.995361 1405.214966,915.028259 1405.625244,915.061096 
	C1405.890991,909.300964 1406.159790,903.540894 1406.385132,897.779114 
	C1406.388184,897.702576 1405.836670,897.604309 1405.181885,898.037170 
M1390.110962,904.924805 
	C1391.454712,904.924805 1392.798462,904.924805 1394.142212,904.924805 
	C1394.141357,904.680481 1394.140381,904.436096 1394.139526,904.191772 
	C1392.002808,903.987305 1389.866089,903.782898 1387.729370,903.578430 
	C1387.709717,903.785522 1387.690186,903.992615 1387.670654,904.199707 
	C1388.269165,904.412415 1388.867798,904.625122 1390.110962,904.924805 
M1384.335327,870.900879 
	C1384.118774,870.940308 1383.902222,870.979736 1383.685669,871.019226 
	C1383.898560,871.069641 1384.111450,871.120056 1384.335327,870.900879 
M1397.934570,920.403137 
	C1397.934570,920.403137 1397.985474,920.593994 1397.985474,920.593994 
	C1397.985474,920.593994 1398.049072,920.406372 1397.934570,920.403137 
z"/>
<path fill="#B1B5BC" opacity="1.000000" stroke="none" 
	d="
M1434.471558,901.878662 
	C1439.055420,900.530762 1443.237061,899.127686 1447.418701,897.724609 
	C1447.360596,897.250793 1447.302612,896.776978 1447.244629,896.303162 
	C1448.281128,897.484863 1449.317627,898.666565 1450.300537,899.787170 
	C1446.120483,906.428345 1440.141235,908.864014 1432.171509,907.353455 
	C1425.623169,906.112305 1419.421997,900.720032 1419.032349,894.365723 
	C1418.634766,887.882629 1418.666260,881.056885 1420.291626,874.847534 
	C1422.253662,867.351929 1429.554199,863.379822 1436.845703,863.944702 
	C1443.572144,864.465820 1448.597656,869.401123 1450.188110,877.365295 
	C1450.798584,880.422302 1450.931152,883.574768 1451.362427,887.402466 
	C1442.197876,887.402466 1433.519775,887.402466 1424.903687,887.402466 
	C1424.381958,895.193970 1427.281006,899.520203 1434.471558,901.878662 
M1436.269165,869.581177 
	C1428.519653,870.225769 1424.954468,874.122131 1425.271606,881.817322 
	C1431.652588,881.817322 1438.040894,881.817322 1444.419189,881.817322 
	C1444.640137,875.000061 1442.764648,871.986328 1436.269165,869.581177 
z"/>
<path fill="#B5B8BF" opacity="1.000000" stroke="none" 
	d="
M879.489258,898.303833 
	C878.952026,899.955322 878.899353,902.098450 877.801147,903.180969 
	C868.683777,912.167908 852.811035,907.492493 849.127319,894.697327 
	C847.087524,887.612122 847.582886,880.498840 850.703552,873.743958 
	C854.146790,866.290833 859.556519,863.535522 869.748291,864.360474 
	C878.518738,868.485718 882.089966,876.294495 880.671936,887.644897 
	C872.192078,887.644897 863.636658,887.644897 855.110840,887.644897 
	C854.860962,894.391541 857.391541,899.407959 861.946960,901.224548 
	C868.120178,903.686218 872.864868,901.286133 876.633179,896.245300 
	C877.736511,897.040527 878.612854,897.672180 879.489258,898.303833 
M855.348083,881.540588 
	C861.733704,881.540588 868.119324,881.540588 874.801331,881.540588 
	C874.549072,880.065430 874.406982,878.934875 874.157654,877.828491 
	C873.112305,873.189514 870.629883,869.685120 865.575867,869.541992 
	C860.701233,869.403992 857.572083,872.333008 856.016663,876.878296 
	C855.589661,878.126099 855.379028,879.447937 855.348083,881.540588 
z"/>
<path fill="#B8BBC2" opacity="1.000000" stroke="none" 
	d="
M1367.271729,886.011475 
	C1367.238647,893.093140 1367.238647,899.679565 1367.238647,907.099304 
	C1365.429443,906.478882 1362.844971,905.592712 1360.032837,904.628418 
	C1356.604370,905.430115 1352.251953,907.187500 1347.861450,907.288208 
	C1342.320923,907.415222 1338.342163,903.875916 1337.300415,899.055603 
	C1336.142822,893.700134 1336.639282,888.306519 1341.791748,885.353943 
	C1345.385864,883.294373 1349.758545,882.479431 1353.875977,881.495728 
	C1355.894653,881.013428 1358.123657,881.412170 1360.480713,881.412170 
	C1361.248657,876.689514 1361.227051,872.695923 1356.613647,870.413879 
	C1352.315308,868.287720 1347.632446,870.056763 1344.371216,874.085571 
	C1343.137695,875.609436 1340.638428,876.108765 1337.558594,877.656982 
	C1338.028198,874.881714 1338.003540,873.740051 1338.417480,872.789490 
	C1341.220703,866.352661 1348.698608,862.762817 1356.327148,864.095825 
	C1363.171631,865.291870 1366.979126,870.110901 1367.263428,878.033020 
	C1367.352783,880.524719 1367.295044,883.021729 1367.271729,886.011475 
M1361.125244,893.114807 
	C1361.125244,891.142517 1361.125244,889.170166 1361.125244,886.011597 
	C1356.440308,886.635864 1352.178101,886.790833 1348.156738,887.855530 
	C1344.111816,888.926453 1342.261108,891.984680 1343.428711,896.329590 
	C1344.439697,900.091187 1348.286377,902.585693 1352.316284,901.719971 
	C1356.591553,900.801514 1359.960449,898.564636 1361.125244,893.114807 
z"/>
<path fill="#B1B5BC" opacity="1.000000" stroke="none" 
	d="
M1243.829346,903.008301 
	C1242.899902,900.332825 1241.636230,897.979553 1241.582642,895.599060 
	C1241.354980,885.480591 1241.486084,875.354065 1241.486084,864.899048 
	C1243.591309,864.899048 1245.481567,864.899048 1247.754150,864.899048 
	C1247.754150,874.497742 1247.687012,883.946472 1247.787354,893.393372 
	C1247.827148,897.140747 1249.167725,900.421875 1253.154053,901.503235 
	C1257.173218,902.593506 1260.983154,901.611328 1263.407471,898.173523 
	C1264.635254,896.432556 1265.169678,893.886230 1265.219116,891.686157 
	C1265.416504,882.892334 1265.300659,874.091370 1265.300659,864.935303 
	C1267.467041,864.935303 1269.342896,864.935303 1271.479980,864.935303 
	C1271.479980,878.768616 1271.479980,892.363159 1271.479980,906.296997 
	C1268.813965,906.746582 1265.896851,908.243286 1264.712769,903.930054 
	C1255.883057,909.362183 1249.602295,909.163818 1243.829346,903.008301 
z"/>
<path fill="#B1B5BC" opacity="1.000000" stroke="none" 
	d="
M1184.046509,906.874756 
	C1183.927246,906.600891 1183.750610,906.371094 1183.414307,905.609497 
	C1183.063599,894.935669 1182.815430,884.837769 1182.567383,874.739807 
	C1180.691040,869.984680 1176.630615,870.831238 1172.055420,870.898438 
	C1167.260986,872.402161 1166.216675,875.697937 1166.204956,879.546997 
	C1166.181885,887.122803 1166.287598,894.700256 1166.148071,902.273499 
	C1166.114136,904.117981 1165.336060,905.948853 1164.900024,907.785950 
	C1163.299316,907.404907 1161.698608,907.023926 1159.946655,905.848877 
	C1159.808960,896.925354 1159.804199,888.795654 1159.840454,880.666138 
	C1159.886353,870.375549 1154.140381,867.042786 1145.055908,871.730652 
	C1148.612671,863.691589 1156.690063,864.325317 1164.168823,873.169922 
	C1164.470703,872.058289 1164.707642,871.185730 1165.246826,870.141724 
	C1167.779419,868.134949 1170.009644,866.299561 1172.239990,864.464172 
	C1182.730591,862.609741 1187.428955,865.540894 1189.749878,876.127319 
	C1189.849854,886.738770 1189.849854,896.548828 1189.849854,906.533813 
	C1187.602539,906.665833 1185.824585,906.770264 1184.046509,906.874756 
z"/>
<path fill="#B1B5BC" opacity="1.000000" stroke="none" 
	d="
M1060.130371,906.709900 
	C1058.201538,906.984680 1056.406738,906.984680 1054.290649,906.984680 
	C1054.290649,892.760620 1054.290649,878.938782 1054.290649,864.804260 
	C1056.197998,864.804260 1057.937988,864.804260 1059.910767,864.804260 
	C1060.082764,866.142273 1060.244263,867.398865 1060.513916,869.496094 
	C1065.849976,863.818726 1071.802124,862.338440 1078.928101,865.713745 
	C1079.302124,865.824097 1079.327881,865.900513 1079.549316,866.157959 
	C1081.313599,870.146973 1083.870117,873.791565 1084.198730,877.627136 
	C1085.005005,887.038513 1084.784302,896.537903 1084.976807,906.001892 
	C1084.976685,906.001892 1084.758789,906.242065 1084.413574,906.510010 
	C1082.126953,906.725830 1080.185425,906.673767 1078.244019,906.621704 
	C1078.244019,906.621704 1078.240601,906.765015 1078.263184,906.312012 
	C1078.267090,897.618774 1078.338257,889.376709 1078.173462,881.139343 
	C1078.125854,878.753845 1077.401367,876.381897 1076.987183,874.003723 
	C1076.650146,873.374634 1076.313110,872.745605 1075.484009,871.665039 
	C1067.761353,868.180908 1060.745728,871.540405 1060.549805,878.527283 
	C1060.293335,887.673401 1060.613281,896.835754 1060.685181,905.991089 
	C1060.544922,906.139160 1060.404785,906.287170 1060.130371,906.709900 
z"/>
<path fill="#B8BBC2" opacity="1.000000" stroke="none" 
	d="
M1228.450928,870.662720 
	C1233.839233,879.203369 1233.805054,887.981995 1230.864014,896.826355 
	C1228.569824,903.725891 1222.748413,907.668823 1215.777466,907.788086 
	C1208.703735,907.909119 1203.083740,904.315857 1200.314941,897.456665 
	C1197.559082,890.629700 1197.185303,883.510437 1199.351318,876.478760 
	C1204.023926,861.309021 1221.425903,860.456604 1228.450928,870.662720 
M1204.760742,880.739014 
	C1205.327148,885.925293 1205.361206,891.245605 1206.623413,896.256653 
	C1207.694092,900.507568 1211.519775,902.337708 1215.940308,902.291321 
	C1220.357178,902.244995 1223.046997,899.660156 1224.451416,895.792847 
	C1226.978516,888.834229 1227.387207,881.709595 1223.788818,875.070618 
	C1222.615723,872.906494 1219.942261,870.843994 1217.555298,870.186646 
	C1211.115479,868.413269 1207.168213,871.730774 1204.760742,880.739014 
M1202.469604,877.396118 
	C1202.076782,878.127441 1201.683960,878.858765 1201.291016,879.590088 
	C1201.639404,879.698303 1201.987793,879.806580 1202.336060,879.914795 
	C1202.481567,879.181335 1202.627197,878.447815 1202.469604,877.396118 
M1209.680420,902.881226 
	C1209.186523,902.785950 1208.692749,902.690613 1208.198853,902.595337 
	C1208.121460,902.872986 1208.044189,903.150696 1207.966919,903.428345 
	C1208.919678,903.681335 1209.872314,903.934265 1210.825073,904.187256 
	C1210.581787,903.826782 1210.338501,903.466309 1209.680420,902.881226 
M1229.943848,883.473694 
	C1229.847656,883.185974 1229.751465,882.898254 1229.655273,882.610535 
	C1229.474243,883.078003 1229.293213,883.545410 1229.112183,884.012817 
	C1229.381226,883.967468 1229.650146,883.922119 1229.943848,883.473694 
M1228.916382,893.092712 
	C1228.856201,892.951904 1228.826660,892.779907 1228.725586,892.680542 
	C1228.651001,892.607117 1228.483276,892.628296 1228.357056,892.607361 
	C1228.335938,893.185242 1228.314819,893.763123 1228.293701,894.341003 
	C1228.510010,894.059143 1228.726440,893.777283 1228.916382,893.092712 
M1222.453857,868.724731 
	C1222.267822,868.755554 1222.081909,868.786438 1221.895874,868.817261 
	C1222.087769,868.864746 1222.279541,868.912292 1222.453857,868.724731 
M1229.498047,888.470459 
	C1229.498047,888.470459 1229.512817,888.513245 1229.498047,888.470459 
M1226.496948,872.476013 
	C1226.496948,872.476013 1226.512695,872.518677 1226.496948,872.476013 
M1205.473267,900.496155 
	C1205.473267,900.496155 1205.516235,900.479431 1205.473267,900.496155 
z"/>
<path fill="#B8BBC2" opacity="1.000000" stroke="none" 
	d="
M1483.523926,865.131958 
	C1488.509766,868.979614 1490.158691,873.909790 1490.036255,879.772827 
	C1489.852783,888.556763 1489.988525,897.347290 1489.988525,906.500854 
	C1487.848389,906.623047 1486.098145,906.722961 1483.516235,906.870361 
	C1483.516235,899.957886 1483.524658,893.383423 1483.512451,886.809021 
	C1483.506958,883.813843 1483.639404,880.804016 1483.394043,877.826843 
	C1482.953003,872.473389 1479.919922,869.665771 1475.111694,869.837036 
	C1470.237793,870.010559 1465.972534,873.868042 1465.924561,878.538269 
	C1465.830322,887.692871 1465.950317,896.849731 1465.870605,906.456787 
	C1463.815308,906.907959 1461.871338,906.907959 1459.774536,906.907959 
	C1459.774536,892.553528 1459.774536,878.738403 1459.774536,863.186035 
	C1462.787231,865.012146 1464.793945,866.228516 1467.359863,867.783813 
	C1471.117676,863.992249 1476.751465,862.738037 1483.523926,865.131958 
z"/>
<path fill="#B8BBC2" opacity="1.000000" stroke="none" 
	d="
M1284.416260,903.560486 
	C1282.828979,900.903687 1281.514648,898.507385 1279.745972,895.282593 
	C1282.580078,895.005615 1284.288086,894.838684 1286.347900,894.637390 
	C1288.056885,900.202209 1291.908203,902.603455 1297.610596,902.034363 
	C1301.284546,901.667725 1304.147217,900.039246 1304.708374,896.202393 
	C1305.270874,892.355469 1302.496338,890.484863 1299.356812,889.384033 
	C1296.384644,888.341919 1293.214478,887.854309 1290.261597,886.768799 
	C1284.092773,884.500854 1281.710205,881.229919 1281.896484,875.845825 
	C1282.091064,870.223572 1284.931519,866.746094 1290.949585,864.762695 
	C1300.598633,861.582458 1309.207275,866.587952 1310.614380,876.432190 
	C1307.395264,877.221619 1304.997559,877.410828 1303.181030,873.439270 
	C1301.183472,869.071899 1294.373413,868.213806 1290.513184,871.163513 
	C1286.853516,873.960022 1287.253662,878.744019 1291.635376,880.836365 
	C1294.604980,882.254456 1297.925415,882.941284 1301.093872,883.939270 
	C1308.013428,886.118835 1311.504272,890.519836 1311.017578,896.469482 
	C1310.548462,902.204529 1306.092407,906.446289 1299.197876,907.402588 
	C1293.939087,908.132019 1288.884521,907.606384 1284.416260,903.560486 
z"/>
<path fill="#B8BBC2" opacity="1.000000" stroke="none" 
	d="
M1100.513672,867.389648 
	C1110.154419,861.605530 1119.751099,863.062988 1124.591431,871.797791 
	C1129.951172,881.470032 1130.712769,899.509827 1118.014282,905.799988 
	C1111.044678,909.252502 1102.703613,907.557373 1097.792236,901.641785 
	C1089.144409,891.226074 1091.554443,876.589111 1100.513672,867.389648 
M1100.946167,900.865051 
	C1100.946167,900.865051 1100.974609,901.017395 1101.048340,901.131714 
	C1101.048340,901.131714 1101.216797,901.129517 1101.216797,901.129517 
	C1101.216797,901.129517 1101.018188,900.973511 1100.946167,900.865051 
M1100.389771,871.734314 
	C1100.626831,871.525513 1100.839111,871.293945 1101.146484,870.960266 
	C1101.146484,870.960266 1101.139404,870.774048 1101.139404,870.774048 
	C1101.139404,870.774048 1100.963257,870.975525 1100.600098,871.276367 
	C1100.366943,871.489868 1100.160034,871.726318 1099.871338,872.057373 
	C1099.871338,872.057373 1100.016235,872.023254 1100.389771,871.734314 
M1122.717896,874.608154 
	C1122.502441,874.377258 1122.263184,874.174561 1121.707031,873.348389 
	C1120.393188,872.931580 1119.079224,872.514771 1117.104858,871.746277 
	C1111.216431,866.991394 1102.372314,869.607117 1100.633911,878.316589 
	C1099.627563,883.359436 1100.097412,888.897888 1100.928101,894.048035 
	C1101.705078,898.864319 1105.206421,901.839539 1110.411865,902.078369 
	C1115.503784,902.312073 1118.428345,899.365845 1120.201782,895.039246 
	C1123.091675,887.988464 1122.163818,881.032471 1120.259399,874.096924 
	C1120.839600,874.064636 1121.419800,874.032288 1122.285889,874.374695 
	C1122.490234,874.615112 1122.718506,874.830078 1123.104492,875.572083 
	C1123.395874,876.052185 1123.687256,876.532227 1124.021973,877.660522 
	C1124.343872,878.442749 1124.665771,879.224976 1124.988647,880.880249 
	C1124.988647,883.300049 1124.988647,885.719849 1124.988647,888.139648 
	C1125.413208,888.097534 1125.837891,888.055420 1126.262451,888.013306 
	C1125.846436,885.336487 1125.430542,882.659729 1124.971802,879.334595 
	C1124.655396,878.548340 1124.338867,877.762024 1123.886719,876.422363 
	C1123.597778,875.937988 1123.308960,875.453613 1122.717896,874.608154 
M1123.571655,894.395569 
	C1123.265991,895.225464 1122.960327,896.055420 1122.654541,896.885315 
	C1122.944702,896.949768 1123.234863,897.014160 1123.524902,897.078613 
	C1123.690308,896.056213 1123.855591,895.033875 1124.321411,893.681152 
	C1124.441895,893.297668 1124.562256,892.914124 1124.682739,892.530640 
	C1124.525513,892.496582 1124.368408,892.462524 1124.211182,892.428528 
	C1124.132812,892.944580 1124.054321,893.460693 1123.571655,894.395569 
M1105.732788,868.025208 
	C1106.841553,867.794861 1107.950317,867.564453 1109.059082,867.334045 
	C1108.863159,866.898804 1108.667236,866.463562 1108.471313,866.028320 
	C1107.302246,866.674683 1106.133057,867.320984 1104.564087,868.073486 
	C1104.307129,868.337097 1104.050293,868.600708 1103.793335,868.864380 
	C1103.911987,868.895996 1104.091064,868.993103 1104.139404,868.948486 
	C1104.450439,868.661621 1104.732788,868.343750 1105.732788,868.025208 
M1096.124146,886.683289 
	C1096.344482,886.727600 1096.565796,886.801819 1096.784302,886.793457 
	C1096.834106,886.791504 1096.903320,886.506042 1096.912476,886.348022 
	C1097.083618,883.420105 1097.246948,880.491699 1097.411987,877.563416 
	C1097.083618,877.537537 1096.755127,877.511719 1096.426636,877.485840 
	C1096.298706,880.353638 1096.170776,883.221375 1096.124146,886.683289 
M1111.038818,904.561157 
	C1111.747681,904.706848 1112.456543,904.852539 1113.165405,904.998169 
	C1113.197754,904.695984 1113.230103,904.393738 1113.262329,904.091553 
	C1112.642944,904.158081 1112.023560,904.224670 1111.038818,904.561157 
M1113.333374,866.903992 
	C1113.113525,866.942932 1112.893555,866.981812 1112.673706,867.020752 
	C1112.890869,867.073120 1113.108154,867.125488 1113.333374,866.903992 
M1107.269409,904.306519 
	C1107.381714,904.449158 1107.494141,904.591858 1107.606445,904.734497 
	C1107.570068,904.571716 1107.533691,904.408875 1107.269409,904.306519 
M1117.581909,903.060181 
	C1117.581909,903.060181 1117.465210,902.888245 1117.465210,902.888245 
	C1117.465210,902.888245 1117.475586,903.105530 1117.581909,903.060181 
M1099.500244,898.472839 
	C1099.500244,898.472839 1099.515259,898.515076 1099.500244,898.472839 
z"/>
<path fill="#5F68C3" opacity="1.000000" stroke="none" 
	d="
M1459.297607,689.427124 
	C1459.019653,682.353333 1459.346069,675.406128 1458.936890,668.502502 
	C1458.852051,667.071899 1456.050781,664.652405 1454.474976,664.630920 
	C1426.340210,664.247192 1398.201172,664.183289 1370.063477,663.992004 
	C1366.139160,663.965332 1365.979858,666.440613 1365.986084,669.328735 
	C1366.017212,683.987244 1365.999756,698.645996 1366.000122,713.304626 
	C1366.000732,741.622498 1365.995850,769.940308 1366.007690,798.258179 
	C1366.010498,804.932129 1366.080322,804.712708 1372.646240,805.077759 
	C1378.328857,805.393677 1383.975220,806.361023 1389.805664,807.341919 
	C1382.676147,807.737000 1375.374146,807.704224 1368.083496,807.976807 
	C1364.413940,808.114014 1363.640991,806.414612 1363.663330,803.171570 
	C1363.774414,787.048706 1363.733521,770.924744 1363.736816,754.801208 
	C1363.742676,725.380127 1363.743042,695.959045 1363.741821,666.537964 
	C1363.741699,664.057373 1363.174927,661.161377 1368.002441,662.189453 
	C1369.818359,662.641357 1370.959106,662.952087 1372.100098,662.953308 
	C1396.743652,662.979248 1421.387451,663.010803 1446.030762,662.932861 
	C1450.652710,662.918274 1455.272949,662.439575 1459.894043,662.175049 
	C1460.554199,662.715027 1461.782349,663.247864 1461.789185,663.795959 
	C1461.888184,671.722412 1461.875488,679.652039 1461.704224,687.576965 
	C1461.689575,688.255493 1460.359741,688.905701 1459.297607,689.427124 
z"/>
<path fill="#B1B5BC" opacity="1.000000" stroke="none" 
	d="
M825.343140,899.805603 
	C825.327942,888.014709 825.327942,876.698120 825.327942,864.790955 
	C827.284424,864.684875 829.157776,864.583252 831.254333,864.469543 
	C831.402588,866.106628 831.515015,867.347046 831.573242,867.990173 
	C835.478516,866.318054 839.333069,864.667664 844.163330,862.599548 
	C844.336365,866.174988 844.428345,868.075806 844.544250,870.472473 
	C843.013672,870.472473 841.764954,870.401794 840.526550,870.484741 
	C835.125122,870.846558 831.727051,874.512817 831.725952,879.928528 
	C831.724182,888.722046 831.725464,897.515625 831.725464,906.620056 
	C829.609375,906.620056 827.866760,906.620056 825.358398,906.620056 
	C825.358398,904.469238 825.358398,902.374573 825.343140,899.805603 
z"/>
<path fill="#B8BBC2" opacity="1.000000" stroke="none" 
	d="
M1164.944580,870.313171 
	C1164.707642,871.185730 1164.470703,872.058289 1164.168823,873.169922 
	C1156.690063,864.325317 1148.612671,863.691589 1144.905762,872.083801 
	C1144.146240,874.976318 1143.094849,877.133545 1143.048584,879.312134 
	C1142.856689,888.361389 1142.967896,897.417114 1142.967896,906.610962 
	C1140.932251,906.610962 1139.474854,906.610962 1137.951660,906.380005 
	C1137.602051,905.769287 1137.318115,905.389465 1136.943359,904.547913 
	C1136.715576,891.060913 1136.578613,878.035645 1136.441650,865.010376 
	C1136.917236,864.876953 1137.388916,864.647827 1137.869019,864.628357 
	C1139.183105,864.574951 1140.500977,864.609924 1142.144897,864.609924 
	C1142.521606,865.936157 1142.895264,867.251526 1143.342407,868.826050 
	C1144.585815,867.671387 1145.646851,866.685852 1147.221191,865.395081 
	C1155.737793,862.460144 1160.512207,863.909241 1164.944580,870.313171 
M1139.451416,900.097595 
	C1139.566162,901.309570 1139.680786,902.521606 1139.795532,903.733582 
	C1140.063354,903.718445 1140.331055,903.703369 1140.598877,903.688293 
	C1140.598877,891.959961 1140.598877,880.231628 1140.598877,868.503357 
	C1140.168823,868.493835 1139.738892,868.484375 1139.308838,868.474915 
	C1139.308838,878.763123 1139.308838,889.051331 1139.451416,900.097595 
z"/>
<path fill="#B5B8BF" opacity="1.000000" stroke="none" 
	d="
M807.747437,901.856812 
	C807.778198,890.753845 808.015381,880.131775 807.748291,869.522461 
	C807.629883,864.818665 809.245239,863.491150 813.818481,864.915405 
	C813.818481,878.686279 813.818481,892.530945 813.818481,906.691223 
	C811.935913,906.691223 810.210571,906.691223 808.088196,906.691223 
	C807.972290,905.206909 807.860474,903.774902 807.747437,901.856812 
z"/>
<path fill="#5763D3" opacity="1.000000" stroke="none" 
	d="
M1459.531250,662.016846 
	C1455.272949,662.439575 1450.652710,662.918274 1446.030762,662.932861 
	C1421.387451,663.010803 1396.743652,662.979248 1372.100098,662.953308 
	C1370.959106,662.952087 1369.818359,662.641357 1368.388916,662.298279 
	C1388.005737,661.998230 1407.911011,661.841675 1427.816650,661.764526 
	C1438.266968,661.724060 1448.717896,661.822754 1459.531250,662.016846 
z"/>
<path fill="#B8BBC2" opacity="1.000000" stroke="none" 
	d="
M807.606812,854.265198 
	C808.477783,852.178711 809.501831,850.437561 810.525879,848.696472 
	C811.952637,849.562866 814.166565,850.156494 814.587585,851.371399 
	C815.020081,852.619385 813.984192,855.589478 813.086426,855.817139 
	C811.514038,856.215942 809.556152,855.094910 807.606812,854.265198 
z"/>
<path fill="#5F68C3" opacity="1.000000" stroke="none" 
	d="
M1392.343750,807.734375 
	C1392.613037,807.478027 1393.206787,807.313477 1393.885254,807.344238 
	C1393.536133,807.635071 1393.102051,807.730591 1392.343750,807.734375 
z"/>
<path fill="#B1B5BC" opacity="1.000000" stroke="none" 
	d="
M1136.791992,906.133057 
	C1136.763916,905.844727 1136.812988,905.590942 1136.921021,905.168213 
	C1137.318115,905.389465 1137.602051,905.769287 1137.951660,906.380005 
	C1137.846436,906.651489 1137.675537,906.692017 1137.241699,906.715454 
	C1137.082153,906.511902 1137.063599,906.338501 1136.791992,906.133057 
z"/>
<path fill="#47A87D" opacity="1.000000" stroke="none" 
	d="
M555.986389,678.074219 
	C556.182495,678.042664 556.378662,678.011047 556.868774,677.921082 
	C560.294983,683.038269 563.427185,688.213867 566.646912,693.642151 
	C566.586121,694.016846 566.437866,694.138794 565.719238,694.496216 
	C562.749817,695.816467 560.350769,696.901245 558.064697,697.666016 
	C562.627869,692.437073 562.328430,690.174072 555.719299,681.202209 
	C525.546692,698.730713 495.313599,716.294312 464.922394,733.949768 
	C466.595154,737.001343 467.867920,739.112305 468.939209,741.320923 
	C471.266632,746.119019 472.254608,746.435852 476.916443,743.700745 
	C499.421661,730.496582 521.898804,717.243835 544.471252,704.155457 
	C548.557556,701.785950 553.041992,700.102844 557.156494,698.399963 
	C554.784424,700.184326 552.677856,701.807312 550.400513,703.138062 
	C523.626953,718.782410 496.827850,734.382996 470.035492,749.995117 
	C470.035492,749.995117 469.689819,749.846069 469.451141,749.469604 
	C466.876556,743.934570 464.540649,738.776123 462.017700,733.204529 
	C478.335968,723.598938 495.161957,713.671021 512.011597,703.783325 
	C526.656006,695.190002 541.327087,686.642151 555.986389,678.074219 
z"/>
<path fill="#B8BBC2" opacity="1.000000" stroke="none" 
	d="
M920.907227,881.723511 
	C924.305176,881.468506 927.271667,881.240723 930.477600,880.994507 
	C931.351746,876.506531 931.193115,872.566467 926.649048,870.273499 
	C922.717651,868.289551 917.863342,869.573242 914.990784,873.117249 
	C912.245605,876.504211 912.245667,876.504272 907.663879,875.933411 
	C908.298279,868.575195 914.135986,864.007507 922.954407,863.969421 
	C930.781006,863.935608 936.588074,868.659241 936.983948,875.847534 
	C937.312805,881.817871 937.043274,887.818787 937.192627,893.802307 
	C937.295654,897.931946 937.661194,902.054993 937.974365,907.259644 
	C935.361145,906.645630 932.813293,906.047058 928.921021,905.132507 
	C926.493774,905.691711 922.244263,907.406616 917.967102,907.478516 
	C911.993652,907.578918 907.950806,903.774231 906.843079,898.608704 
	C905.517395,892.426819 907.651611,886.905212 912.929565,884.103577 
	C915.216797,882.889404 917.946838,882.509521 920.907227,881.723511 
M930.841431,888.880798 
	C930.066711,888.065369 929.275146,886.538452 928.520203,886.556274 
	C925.072815,886.637939 921.521301,886.728943 918.223267,887.618042 
	C913.946655,888.770874 912.040161,892.571411 913.050049,896.471191 
	C914.046326,900.318542 918.259155,902.880920 922.472656,901.602966 
	C929.620422,899.434937 931.634033,896.916260 930.841431,888.880798 
z"/>
<path fill="#B8BBC2" opacity="1.000000" stroke="none" 
	d="
M1044.064575,876.200378 
	C1044.088501,883.149048 1044.877075,889.875977 1043.685181,896.231445 
	C1042.376465,903.209534 1036.008667,907.308716 1029.010986,907.640930 
	C1021.757324,907.985291 1015.014465,904.373840 1013.079163,897.284180 
	C1011.465088,891.371399 1010.879944,884.778992 1011.638184,878.712402 
	C1012.729431,869.981140 1018.833740,864.731689 1026.300781,863.978394 
	C1034.116699,863.189880 1040.252075,867.303162 1044.064575,876.200378 
M1017.115479,884.677490 
	C1017.867615,888.716919 1017.781189,893.212280 1019.648071,896.645508 
	C1021.038757,899.202881 1024.909668,901.705322 1027.763306,901.808044 
	C1030.593140,901.909851 1034.706787,899.693237 1036.200928,897.240601 
	C1040.538696,890.120056 1040.402954,882.080261 1036.331421,874.933899 
	C1034.854248,872.341125 1030.569336,870.004578 1027.572876,870.013672 
	C1024.796753,870.022034 1021.386169,872.819885 1019.455933,875.317505 
	C1017.795044,877.466614 1017.827698,880.924622 1017.115479,884.677490 
z"/>
<path fill="#B8BBC2" opacity="1.000000" stroke="none" 
	d="
M952.687317,864.627075 
	C953.467834,866.233337 954.095337,867.750610 954.116089,869.276123 
	C954.222290,877.102173 954.082214,884.931763 954.205566,892.757324 
	C954.305298,899.087402 956.995056,902.069519 962.172180,902.010742 
	C967.955078,901.945190 971.735962,898.142090 971.763367,892.230896 
	C971.804993,883.248718 971.774170,874.266235 971.774170,864.885132 
	C973.794678,864.885132 975.673035,864.885132 977.931030,864.885132 
	C977.931030,878.642944 977.931030,892.361816 977.931030,907.123779 
	C975.388367,906.486084 973.051392,905.900024 970.714417,905.313904 
	C970.852783,904.966248 970.991211,904.618591 971.129578,904.270996 
	C968.584717,905.345642 966.131775,906.872864 963.478149,907.412231 
	C954.608032,909.214844 948.208435,904.264893 947.964661,895.254761 
	C947.694824,885.280457 947.903015,875.293274 947.903015,864.736877 
	C949.446594,864.667725 950.850525,864.604797 952.687317,864.627075 
z"/>
<path fill="#B5B8BF" opacity="1.000000" stroke="none" 
	d="
M997.317993,873.368896 
	C997.311218,880.491089 997.284729,887.146423 997.295471,893.801819 
	C997.306885,900.923035 997.829529,901.471802 1004.918274,901.885254 
	C1006.420410,906.300293 1004.484558,907.781921 1000.219666,907.623291 
	C994.766602,907.420471 991.305725,904.198669 991.147034,898.473450 
	C990.939697,890.990784 991.045837,883.499756 990.979553,876.012634 
	C990.963684,874.216675 990.799377,872.422119 990.687195,870.325195 
	C988.498352,870.183411 986.567627,870.058350 984.198792,869.904907 
	C984.198792,868.249390 984.198792,866.574402 984.198792,864.685364 
	C986.243774,864.517700 988.188110,864.358337 990.663452,864.155396 
	C990.663452,860.857727 990.663452,857.640869 990.663452,854.138855 
	C993.103088,854.138855 995.001709,854.138855 997.288330,854.138855 
	C997.288330,857.501038 997.288330,860.741333 997.288330,864.338562 
	C999.916748,864.487671 1002.186218,864.616394 1004.756104,864.762207 
	C1004.756104,866.397827 1004.756104,867.943909 1004.756104,869.021790 
	C1002.617432,871.712402 997.509521,867.129700 997.317993,873.368896 
z"/>
<path fill="#5763D6" opacity="1.000000" stroke="none" 
	d="
M1512.013184,728.004517 
	C1512.015015,751.328308 1512.028320,774.153259 1512.013916,796.978149 
	C1512.009277,804.481323 1511.480469,804.998291 1504.156006,805.023132 
	C1499.324463,805.039551 1494.491333,804.949463 1489.661987,805.052368 
	C1486.656250,805.116394 1484.903687,804.173584 1484.927979,800.834229 
	C1484.995361,791.588196 1484.964966,782.341431 1484.967773,773.094910 
	C1484.972778,757.152527 1484.973511,741.210205 1484.975464,725.267822 
	C1484.977661,706.832703 1485.092773,688.396484 1484.900635,669.963379 
	C1484.853271,665.424072 1486.272095,663.716309 1490.910889,663.894043 
	C1498.729858,664.193665 1506.570068,664.069458 1514.398315,663.937622 
	C1517.624634,663.883240 1519.508057,665.116943 1521.093262,667.982361 
	C1531.151367,686.164673 1541.466309,704.204773 1551.546021,722.375305 
	C1556.058594,730.509827 1560.224487,738.836670 1564.541626,747.079468 
	C1565.159912,748.260010 1565.624878,749.539490 1566.367676,750.632629 
	C1568.252319,753.406067 1569.517334,757.899353 1573.749023,756.446899 
	C1575.203613,755.947693 1575.872925,751.427979 1575.888916,748.738953 
	C1576.041748,722.916077 1575.968872,697.091919 1575.982788,671.268127 
	C1575.986206,664.870117 1577.342163,663.698425 1583.582642,664.000549 
	C1587.051147,664.168457 1590.536621,663.977600 1594.014404,663.968018 
	C1601.482544,663.947510 1602.981812,665.427490 1602.928101,673.000061 
	C1602.633545,714.625122 1602.227905,756.249756 1602.117065,797.875244 
	C1602.103027,803.122986 1600.926392,805.485168 1595.255737,805.209595 
	C1587.664307,804.840698 1580.032593,805.322021 1572.436890,804.998047 
	C1570.880005,804.931641 1568.826904,803.249695 1567.981323,801.757690 
	C1557.245239,782.814087 1546.653198,763.788208 1536.098999,744.742065 
	C1530.474487,734.592224 1525.087402,724.309692 1519.362915,714.217590 
	C1518.319214,712.377441 1516.163940,711.167664 1514.521729,709.666931 
	C1513.877808,709.805847 1513.233887,709.944702 1512.589966,710.083618 
	C1512.397827,715.890930 1512.205688,721.698242 1512.013184,728.004517 
z"/>
<path fill="#B5B8BF" opacity="1.000000" stroke="none" 
	d="
M1526.094116,903.928345 
	C1524.865479,901.232788 1523.593384,898.562195 1522.151123,895.534058 
	C1526.191284,894.353271 1528.571411,893.510864 1530.229858,897.741882 
	C1532.056885,902.403320 1540.704102,903.740662 1544.565186,900.500732 
	C1547.291138,898.213318 1546.980347,892.889709 1543.571411,891.241638 
	C1540.281006,889.651001 1536.504517,889.101135 1533.028320,887.852478 
	C1525.501465,885.148743 1520.953247,878.170837 1524.512085,871.408630 
	C1527.412720,865.897034 1534.500610,863.077637 1541.288208,864.175049 
	C1547.526978,865.183716 1551.294434,869.116455 1552.806274,876.479675 
	C1549.728027,877.029175 1547.121216,877.882324 1545.334106,873.724487 
	C1543.733032,869.999451 1538.028687,868.352539 1534.515259,870.378235 
	C1532.731079,871.406982 1530.598877,873.759155 1530.622070,875.486023 
	C1530.648560,877.441895 1532.491089,880.122009 1534.300903,881.135803 
	C1537.279541,882.804382 1540.884521,883.334167 1544.194824,884.436035 
	C1550.438843,886.514221 1553.532349,890.428467 1553.395874,895.947693 
	C1553.257568,901.537903 1549.575928,905.588257 1543.254517,907.184204 
	C1537.278809,908.692871 1531.507812,909.192810 1526.414307,904.021606 
	C1526.099609,903.865784 1526.050659,903.953186 1526.094116,903.928345 
z"/>
<path fill="#B8BBC2" opacity="1.000000" stroke="none" 
	d="
M1516.844482,903.437073 
	C1515.899414,905.052673 1515.169922,907.097778 1514.025635,907.364746 
	C1507.439819,908.901123 1502.557617,905.035461 1502.403564,898.111389 
	C1502.200439,888.980774 1502.353638,879.842224 1502.353638,870.290100 
	C1499.972290,870.131714 1497.898071,869.993774 1495.310425,869.821655 
	C1495.203125,868.312378 1495.093018,866.761963 1494.959839,864.886780 
	C1497.346802,864.672546 1499.428467,864.485718 1502.000488,864.254883 
	C1502.000488,860.925842 1502.000488,857.696289 1502.000488,854.151733 
	C1504.398193,854.151733 1506.297974,854.151733 1508.616577,854.151733 
	C1508.616577,857.389587 1508.616577,860.645996 1508.616577,864.387939 
	C1511.210449,864.548157 1513.430908,864.685303 1515.957764,864.841370 
	C1516.037231,866.402283 1516.109497,867.820435 1516.202148,869.638000 
	C1513.717041,869.818115 1511.487671,869.979736 1508.798584,870.174683 
	C1508.798584,879.518799 1508.598877,888.625183 1509.007812,897.704224 
	C1509.071289,899.112732 1511.838989,900.509583 1513.510864,901.693176 
	C1514.468994,902.371399 1515.739014,902.609192 1516.844482,903.437073 
M1506.000122,882.654663 
	C1505.956787,881.719543 1505.913452,880.784363 1505.870117,879.849243 
	C1505.676636,879.855042 1505.483154,879.860840 1505.289673,879.866699 
	C1505.289673,881.951660 1505.289673,884.036621 1505.289673,886.121643 
	C1505.482666,886.133606 1505.675659,886.145630 1505.868774,886.157654 
	C1505.912476,885.213928 1505.956299,884.270203 1506.000122,882.654663 
M1506.740967,900.068237 
	C1506.292969,900.396484 1505.844971,900.724731 1505.396851,901.052917 
	C1505.950195,901.420776 1506.503540,901.788696 1507.056885,902.156555 
	C1507.060059,901.591614 1507.063232,901.026672 1506.740967,900.068237 
M1505.195190,893.255737 
	C1505.403076,892.731934 1505.610840,892.208069 1505.818726,891.684265 
	C1505.644775,891.639954 1505.470825,891.595581 1505.296753,891.551270 
	C1505.225830,891.992737 1505.154907,892.434204 1505.195190,893.255737 
M1505.531494,861.500977 
	C1505.531494,861.500977 1505.489258,861.518005 1505.531494,861.500977 
z"/>
<path fill="#B8BBC2" opacity="1.000000" stroke="none" 
	d="
M1566.106812,898.749390 
	C1567.791260,900.542908 1569.400269,902.236633 1570.131104,904.249329 
	C1570.353394,904.861145 1568.207886,907.161194 1567.049072,907.239319 
	C1565.567017,907.339172 1563.277344,906.375671 1562.586182,905.159607 
	C1560.789429,901.998901 1562.641357,899.938232 1566.106812,898.749390 
z"/>
<path fill="#5763D4" opacity="1.000000" stroke="none" 
	d="
M860.159546,746.000000 
	C860.156494,766.621338 860.156494,786.742676 860.156494,807.470825 
	C850.327271,807.470825 840.898499,807.592773 831.484314,807.278015 
	C830.566101,807.247314 828.999268,804.533386 828.981201,803.049805 
	C828.778564,786.394348 828.633972,769.732849 828.912354,753.080261 
	C828.994202,748.183167 827.911194,746.380737 822.661621,746.508362 
	C808.191467,746.859985 793.704346,746.798096 779.230408,746.536926 
	C774.546387,746.452454 773.372009,748.072693 773.429749,752.557190 
	C773.661072,770.522949 773.525330,788.493530 773.525330,807.100159 
	C763.039490,807.100159 752.849121,807.100159 742.082642,807.100159 
	C741.996643,805.546936 741.814148,803.793396 741.814941,802.039917 
	C741.833984,757.392700 741.945190,712.745178 741.801147,668.098572 
	C741.785767,663.329834 742.973389,661.577271 747.887695,661.861511 
	C754.529419,662.245544 761.222961,662.210938 767.869385,661.870667 
	C772.407104,661.638367 773.558777,663.474121 773.518005,667.668274 
	C773.369263,682.984680 773.635193,698.305786 773.417786,713.620483 
	C773.359680,717.710876 774.809204,718.699341 778.584351,718.665527 
	C793.410583,718.532532 808.241333,718.509216 823.065186,718.756958 
	C827.358276,718.828674 828.865601,717.684265 828.799316,713.175537 
	C828.573975,697.855225 828.893738,682.527466 828.742004,667.205139 
	C828.701355,663.096985 830.010437,661.674194 834.146912,661.855042 
	C841.131592,662.160400 848.142517,662.131592 855.133240,661.928162 
	C858.969604,661.816528 860.271545,663.002808 860.244629,667.030151 
	C860.069946,693.185791 860.159485,719.343201 860.159546,746.000000 
z"/>
<path fill="#5762D5" opacity="1.000000" stroke="none" 
	d="
M1046.443604,787.476807 
	C1049.208008,793.146973 1051.807495,798.482910 1055.087524,805.216064 
	C1045.181519,805.216064 1036.498169,805.404724 1027.837891,805.042847 
	C1026.271118,804.977417 1024.178101,802.956665 1023.379517,801.324280 
	C1016.221497,786.691467 1009.205261,771.986755 1002.369751,757.200439 
	C1000.553894,753.272522 997.902832,751.904053 993.749390,751.946533 
	C987.102234,752.014343 980.449707,751.542480 973.802307,751.604187 
	C972.554993,751.615723 970.586914,752.812561 970.229004,753.887756 
	C969.406311,756.359070 969.087280,759.089661 969.063293,761.719543 
	C968.950989,774.045776 968.841919,786.376831 969.089050,798.698975 
	C969.182739,803.371460 967.848450,805.394348 962.902649,805.100037 
	C959.124634,804.875183 955.290649,805.506104 951.486755,805.819763 
	C945.079285,806.348022 942.991760,804.535217 942.988770,798.282471 
	C942.979431,778.458984 943.046875,758.635254 942.968445,738.812073 
	C942.886108,717.999084 942.669617,697.186646 942.513306,676.373962 
	C942.510803,676.041443 942.523193,675.708618 942.537109,675.376282 
	C943.014404,663.995300 943.014526,663.994263 954.464478,663.995300 
	C970.936157,663.996765 987.413452,663.742065 1003.877380,664.100281 
	C1013.517944,664.310059 1022.953308,665.755798 1031.614258,670.918030 
	C1042.321655,677.299927 1049.001709,686.635864 1051.370605,698.422241 
	C1053.793091,710.476135 1052.109497,722.635376 1044.792603,732.813416 
	C1041.176147,737.844116 1035.496582,741.494202 1030.416504,745.326233 
	C1027.954956,747.182983 1027.293457,748.192993 1028.857056,751.251831 
	C1034.908447,763.090576 1040.509766,775.159424 1046.443604,787.476807 
M975.950378,688.590881 
	C973.590698,688.537354 971.716736,688.799194 971.744873,691.995911 
	C971.840271,702.825989 971.664734,713.659607 971.888367,724.485779 
	C971.912231,725.638977 973.861145,727.713257 974.948547,727.734314 
	C985.272705,727.935181 995.631897,728.239197 1005.924500,727.601318 
	C1015.505554,727.007568 1021.664185,719.741394 1022.247437,709.868591 
	C1022.868408,699.357727 1017.561035,691.028381 1007.701538,689.775024 
	C997.519958,688.480591 987.121826,688.889587 975.950378,688.590881 
z"/>
<path fill="#5762D5" opacity="1.000000" stroke="none" 
	d="
M885.999756,754.000000 
	C885.998413,728.033936 885.988708,702.567871 886.008972,677.101807 
	C886.010803,674.776855 886.269104,672.452698 886.294434,670.126953 
	C886.342102,665.761230 888.466492,663.820007 892.845337,663.937622 
	C898.312683,664.084595 903.786865,664.040283 909.257141,663.985718 
	C912.292664,663.955505 914.015442,665.156738 913.987183,668.356018 
	C913.979797,669.187988 914.006531,670.020203 914.006531,670.852295 
	C914.006653,685.943115 914.002380,701.033997 914.004272,716.124817 
	C914.007446,742.002625 914.019287,767.880493 914.009949,793.758301 
	C914.009216,795.751587 913.960632,797.753235 913.777039,799.736450 
	C913.434692,803.432922 911.711304,805.348083 907.613464,805.091492 
	C902.805420,804.790405 897.958496,804.879333 893.138916,805.067261 
	C889.295654,805.217163 887.034851,803.877747 886.899109,799.824158 
	C886.593994,790.708313 886.227966,781.593689 886.025024,772.475525 
	C885.891724,766.486450 885.999695,760.492004 885.999756,754.000000 
z"/>
<path fill="#B5B8BF" opacity="1.000000" stroke="none" 
	d="
M1405.005859,887.239258 
	C1405.004883,880.340271 1405.004883,873.838440 1405.004883,867.336670 
	C1405.386841,867.342407 1405.768921,867.348206 1406.150879,867.354004 
	C1406.150879,874.924927 1406.150879,882.495850 1406.150879,890.066772 
	C1405.806396,890.070251 1405.461792,890.073730 1405.117310,890.077148 
	C1405.080444,889.263611 1405.043579,888.450073 1405.005859,887.239258 
z"/>
<path fill="#B5B8BF" opacity="1.000000" stroke="none" 
	d="
M1380.062622,887.117798 
	C1380.586182,889.974731 1381.103760,892.441711 1381.621216,894.908691 
	C1381.162598,894.942261 1380.703979,894.975830 1380.245361,895.009399 
	C1378.116333,889.065552 1378.614746,883.059448 1379.970459,877.033020 
	C1380.387573,877.043152 1380.804688,877.053223 1381.221802,877.063354 
	C1380.833374,880.284851 1380.444946,883.506409 1380.062622,887.117798 
z"/>
<path fill="#B5B8BF" opacity="1.000000" stroke="none" 
	d="
M1405.362793,897.776733 
	C1405.836670,897.604309 1406.388184,897.702576 1406.385132,897.779114 
	C1406.159790,903.540894 1405.890991,909.300964 1405.625244,915.061096 
	C1405.214966,915.028259 1404.804688,914.995361 1404.394409,914.962524 
	C1404.656860,909.320740 1404.919312,903.678955 1405.362793,897.776733 
z"/>
<path fill="#B5B8BF" opacity="1.000000" stroke="none" 
	d="
M1381.977295,920.707886 
	C1380.517334,919.965027 1379.071045,918.834473 1377.624756,917.703857 
	C1380.349731,917.494995 1380.127319,909.922852 1384.198730,915.552368 
	C1383.557983,917.342712 1382.774414,918.831421 1381.977295,920.707886 
z"/>
<path fill="#B5B8BF" opacity="1.000000" stroke="none" 
	d="
M1389.788574,904.881348 
	C1388.867798,904.625122 1388.269165,904.412415 1387.670654,904.199707 
	C1387.690186,903.992615 1387.709717,903.785522 1387.729370,903.578430 
	C1389.866089,903.782898 1392.002808,903.987305 1394.139526,904.191772 
	C1394.140381,904.436096 1394.141357,904.680481 1394.142212,904.924805 
	C1392.798462,904.924805 1391.454712,904.924805 1389.788574,904.881348 
z"/>
<path fill="#B5B8BF" opacity="1.000000" stroke="none" 
	d="
M1399.197998,871.017944 
	C1398.834229,871.063171 1398.372437,871.062378 1398.185547,870.926636 
	C1398.884277,869.929138 1399.769775,869.067383 1400.876221,867.974304 
	C1401.380371,867.908936 1401.663696,868.074890 1402.022705,868.481445 
	C1401.253052,869.472290 1400.407471,870.222473 1399.197998,871.017944 
z"/>
<path fill="#B5B8BF" opacity="1.000000" stroke="none" 
	d="
M1388.005859,920.989685 
	C1389.741333,920.989685 1391.476807,920.989685 1393.212280,920.989685 
	C1393.185913,921.347534 1393.159424,921.705322 1393.133057,922.063171 
	C1391.615479,921.842041 1390.097900,921.620911 1388.290161,921.200195 
	C1388.000000,921.000671 1388.005859,920.989685 1388.005859,920.989685 
z"/>
<path fill="#B5B8BF" opacity="1.000000" stroke="none" 
	d="
M1382.011108,897.983948 
	C1382.604370,898.395996 1383.197510,898.808044 1383.790771,899.220093 
	C1383.608032,899.437012 1383.425171,899.653931 1383.242432,899.870850 
	C1382.858398,899.422607 1382.474365,898.974365 1382.045166,898.262939 
	C1382.000000,897.999695 1382.011108,897.983948 1382.011108,897.983948 
z"/>
<path fill="#B5B8BF" opacity="1.000000" stroke="none" 
	d="
M1384.329834,871.035706 
	C1384.111450,871.120056 1383.898560,871.069641 1383.685669,871.019165 
	C1383.902222,870.979736 1384.118774,870.940308 1384.329834,871.035706 
z"/>
<path fill="#B5B8BF" opacity="1.000000" stroke="none" 
	d="
M1397.991821,920.404785 
	C1398.049072,920.406372 1397.985474,920.593994 1397.985474,920.593994 
	C1397.985474,920.593994 1397.934570,920.403137 1397.991821,920.404785 
z"/>
<path fill="#B5B8BF" opacity="1.000000" stroke="none" 
	d="
M1387.995117,921.005859 
	C1387.730713,920.923279 1387.471191,920.835449 1387.211670,920.747681 
	C1387.406982,920.754211 1387.602417,920.760742 1387.901855,920.878479 
	C1388.005859,920.989685 1388.000000,921.000671 1387.995117,921.005859 
z"/>
<path fill="#B5B8BF" opacity="1.000000" stroke="none" 
	d="
M1381.992188,898.005310 
	C1381.984253,898.010925 1381.943604,897.878235 1381.977295,897.931091 
	C1382.011108,897.983948 1382.000000,897.999695 1381.992188,898.005310 
z"/>
<path fill="#B1B5BC" opacity="1.000000" stroke="none" 
	d="
M1202.621094,877.555237 
	C1202.627197,878.447815 1202.481567,879.181335 1202.336060,879.914795 
	C1201.987793,879.806580 1201.639404,879.698303 1201.291016,879.590088 
	C1201.683960,878.858765 1202.076782,878.127441 1202.621094,877.555237 
z"/>
<path fill="#B1B5BC" opacity="1.000000" stroke="none" 
	d="
M1209.887817,902.993530 
	C1210.338501,903.466309 1210.581787,903.826782 1210.825073,904.187256 
	C1209.872314,903.934265 1208.919678,903.681335 1207.966919,903.428345 
	C1208.044189,903.150696 1208.121460,902.872986 1208.198853,902.595337 
	C1208.692749,902.690613 1209.186523,902.785950 1209.887817,902.993530 
z"/>
<path fill="#B1B5BC" opacity="1.000000" stroke="none" 
	d="
M1229.931519,883.675171 
	C1229.650146,883.922119 1229.381226,883.967468 1229.112183,884.012817 
	C1229.293213,883.545410 1229.474243,883.078003 1229.655273,882.610535 
	C1229.751465,882.898254 1229.847656,883.185974 1229.931519,883.675171 
z"/>
<path fill="#B1B5BC" opacity="1.000000" stroke="none" 
	d="
M1228.929565,893.294067 
	C1228.726440,893.777283 1228.510010,894.059143 1228.293701,894.341003 
	C1228.314819,893.763123 1228.335938,893.185242 1228.357056,892.607361 
	C1228.483276,892.628296 1228.651001,892.607117 1228.725586,892.680542 
	C1228.826660,892.779907 1228.856201,892.951904 1228.929565,893.294067 
z"/>
<path fill="#B1B5BC" opacity="1.000000" stroke="none" 
	d="
M1222.462646,868.842285 
	C1222.279541,868.912292 1222.087769,868.864746 1221.895874,868.817261 
	C1222.081909,868.786438 1222.267822,868.755554 1222.462646,868.842285 
z"/>
<path fill="#B1B5BC" opacity="1.000000" stroke="none" 
	d="
M1229.505371,888.491821 
	C1229.512817,888.513245 1229.498047,888.470459 1229.505371,888.491821 
z"/>
<path fill="#B1B5BC" opacity="1.000000" stroke="none" 
	d="
M1226.504883,872.497314 
	C1226.512695,872.518677 1226.496948,872.476013 1226.504883,872.497314 
z"/>
<path fill="#B1B5BC" opacity="1.000000" stroke="none" 
	d="
M1205.494751,900.487793 
	C1205.516235,900.479431 1205.473267,900.496155 1205.494751,900.487793 
z"/>
<path fill="#B1B5BC" opacity="1.000000" stroke="none" 
	d="
M1096.083496,886.386230 
	C1096.170776,883.221375 1096.298706,880.353638 1096.426636,877.485840 
	C1096.755127,877.511719 1097.083618,877.537537 1097.411987,877.563416 
	C1097.246948,880.491699 1097.083618,883.420105 1096.912476,886.348022 
	C1096.903320,886.506042 1096.834106,886.791504 1096.784302,886.793457 
	C1096.565796,886.801819 1096.344482,886.727600 1096.083496,886.386230 
z"/>
<path fill="#B1B5BC" opacity="1.000000" stroke="none" 
	d="
M1125.014648,879.982910 
	C1125.430542,882.659729 1125.846436,885.336487 1126.262451,888.013306 
	C1125.837891,888.055420 1125.413208,888.097534 1124.988647,888.139648 
	C1124.988647,885.719849 1124.988647,883.300049 1124.995361,880.439026 
	C1125.002075,879.997803 1125.014648,879.982910 1125.014648,879.982910 
z"/>
<path fill="#B1B5BC" opacity="1.000000" stroke="none" 
	d="
M1104.963989,867.967346 
	C1106.133057,867.320984 1107.302246,866.674683 1108.471313,866.028320 
	C1108.667236,866.463562 1108.863159,866.898804 1109.059082,867.334045 
	C1107.950317,867.564453 1106.841553,867.794861 1105.364502,868.012573 
	C1104.996094,868.000000 1104.963989,867.967346 1104.963989,867.967346 
z"/>
<path fill="#B1B5BC" opacity="1.000000" stroke="none" 
	d="
M1111.221436,904.426147 
	C1112.023560,904.224670 1112.642944,904.158081 1113.262329,904.091553 
	C1113.230103,904.393738 1113.197754,904.695984 1113.165405,904.998169 
	C1112.456543,904.852539 1111.747681,904.706848 1111.221436,904.426147 
z"/>
<path fill="#B1B5BC" opacity="1.000000" stroke="none" 
	d="
M1119.825195,874.135437 
	C1118.904419,873.652283 1118.417969,873.130615 1117.848389,872.353516 
	C1119.079224,872.514771 1120.393188,872.931580 1121.853516,873.674194 
	C1121.419800,874.032288 1120.839600,874.064636 1119.825195,874.135437 
z"/>
<path fill="#B1B5BC" opacity="1.000000" stroke="none" 
	d="
M1124.020996,894.011536 
	C1123.855591,895.033875 1123.690308,896.056213 1123.524902,897.078613 
	C1123.234863,897.014160 1122.944702,896.949768 1122.654541,896.885315 
	C1122.960327,896.055420 1123.265991,895.225464 1123.784424,894.195923 
	C1123.997192,893.996338 1124.020996,894.011536 1124.020996,894.011536 
z"/>
<path fill="#B1B5BC" opacity="1.000000" stroke="none" 
	d="
M1113.329346,867.040894 
	C1113.108154,867.125488 1112.890869,867.073120 1112.673706,867.020752 
	C1112.893555,866.981812 1113.113525,866.942932 1113.329346,867.040894 
z"/>
<path fill="#B1B5BC" opacity="1.000000" stroke="none" 
	d="
M1123.986572,893.986572 
	C1124.054321,893.460693 1124.132812,892.944580 1124.211182,892.428528 
	C1124.368408,892.462524 1124.525513,892.496582 1124.682739,892.530640 
	C1124.562256,892.914124 1124.441895,893.297668 1124.171143,893.846313 
	C1124.020996,894.011536 1123.997192,893.996338 1123.986572,893.986572 
z"/>
<path fill="#B1B5BC" opacity="1.000000" stroke="none" 
	d="
M1105.010254,868.017944 
	C1104.732788,868.343750 1104.450439,868.661621 1104.139404,868.948486 
	C1104.091064,868.993103 1103.911987,868.895996 1103.793335,868.864380 
	C1104.050293,868.600708 1104.307129,868.337097 1104.764038,868.020386 
	C1104.963989,867.967346 1104.996094,868.000000 1105.010254,868.017944 
z"/>
<path fill="#B1B5BC" opacity="1.000000" stroke="none" 
	d="
M1107.383301,904.276306 
	C1107.533691,904.408875 1107.570068,904.571716 1107.606445,904.734497 
	C1107.494141,904.591858 1107.381714,904.449158 1107.383301,904.276306 
z"/>
<path fill="#B1B5BC" opacity="1.000000" stroke="none" 
	d="
M1124.022339,876.975769 
	C1124.338867,877.762024 1124.655396,878.548340 1124.993164,879.658752 
	C1125.014648,879.982910 1125.002075,879.997803 1124.994873,880.002563 
	C1124.665771,879.224976 1124.343872,878.442749 1124.012207,877.328552 
	C1124.002441,876.996582 1124.022339,876.975769 1124.022339,876.975769 
z"/>
<path fill="#B1B5BC" opacity="1.000000" stroke="none" 
	d="
M1123.020020,874.969238 
	C1123.308960,875.453613 1123.597778,875.937988 1123.954590,876.699097 
	C1124.022339,876.975769 1124.002441,876.996582 1123.990479,877.004456 
	C1123.687256,876.532227 1123.395874,876.052185 1123.051392,875.284790 
	C1122.998291,874.997498 1123.020020,874.969238 1123.020020,874.969238 
z"/>
<path fill="#B1B5BC" opacity="1.000000" stroke="none" 
	d="
M1117.528809,903.082886 
	C1117.475586,903.105530 1117.465210,902.888245 1117.465210,902.888245 
	C1117.465210,902.888245 1117.581909,903.060181 1117.528809,903.082886 
z"/>
<path fill="#B1B5BC" opacity="1.000000" stroke="none" 
	d="
M1100.963257,870.975525 
	C1100.963257,870.975525 1101.139404,870.774048 1101.139404,870.774048 
	C1101.139404,870.774048 1101.146484,870.960266 1101.072144,870.982544 
	C1100.997803,871.004822 1100.963257,870.975525 1100.963257,870.975525 
z"/>
<path fill="#B1B5BC" opacity="1.000000" stroke="none" 
	d="
M1101.012207,871.022278 
	C1100.839111,871.293945 1100.626831,871.525513 1100.194824,871.868164 
	C1100.000000,872.002075 1099.979248,871.985657 1099.979248,871.985657 
	C1100.160034,871.726318 1100.366943,871.489868 1100.781738,871.125977 
	C1100.963257,870.975525 1100.997803,871.004822 1101.012207,871.022278 
z"/>
<path fill="#B1B5BC" opacity="1.000000" stroke="none" 
	d="
M1100.008057,872.012695 
	C1100.016235,872.023254 1099.871338,872.057373 1099.925293,872.021484 
	C1099.979248,871.985657 1100.000000,872.002075 1100.008057,872.012695 
z"/>
<path fill="#B1B5BC" opacity="1.000000" stroke="none" 
	d="
M1122.984375,875.008606 
	C1122.718506,874.830078 1122.490234,874.615112 1122.142944,874.187378 
	C1122.263184,874.174561 1122.502441,874.377258 1122.868896,874.788696 
	C1123.020020,874.969238 1122.998291,874.997498 1122.984375,875.008606 
z"/>
<path fill="#B1B5BC" opacity="1.000000" stroke="none" 
	d="
M1101.018188,900.973511 
	C1101.018188,900.973511 1101.216797,901.129517 1101.216797,901.129517 
	C1101.216797,901.129517 1101.048340,901.131714 1101.023804,901.065063 
	C1100.999268,900.998413 1101.018188,900.973511 1101.018188,900.973511 
z"/>
<path fill="#B1B5BC" opacity="1.000000" stroke="none" 
	d="
M1099.507812,898.493958 
	C1099.515259,898.515076 1099.500244,898.472839 1099.507812,898.493958 
z"/>
<path fill="#B1B5BC" opacity="1.000000" stroke="none" 
	d="
M1100.986938,901.007935 
	C1100.974609,901.017395 1100.946167,900.865051 1100.982178,900.919312 
	C1101.018188,900.973511 1100.999268,900.998413 1100.986938,901.007935 
z"/>
<path fill="#B1B5BC" opacity="1.000000" stroke="none" 
	d="
M1139.380127,899.718567 
	C1139.308838,889.051331 1139.308838,878.763123 1139.308838,868.474915 
	C1139.738892,868.484375 1140.168823,868.493835 1140.598877,868.503357 
	C1140.598877,880.231628 1140.598877,891.959961 1140.598877,903.688293 
	C1140.331055,903.703369 1140.063354,903.718445 1139.795532,903.733582 
	C1139.680786,902.521606 1139.566162,901.309570 1139.380127,899.718567 
z"/>
<path fill="#2EB171" opacity="1.000000" stroke="none" 
	d="
M558.064697,697.666016 
	C557.951721,697.986084 557.659058,698.108154 557.500854,698.105469 
	C553.041992,700.102844 548.557556,701.785950 544.471252,704.155457 
	C521.898804,717.243835 499.421661,730.496582 476.916443,743.700745 
	C472.254608,746.435852 471.266632,746.119019 468.939209,741.320923 
	C467.867920,739.112305 466.595154,737.001343 464.922394,733.949768 
	C495.313599,716.294312 525.546692,698.730713 555.719299,681.202209 
	C562.328430,690.174072 562.627869,692.437073 558.064697,697.666016 
z"/>
<path fill="#B1B5BC" opacity="1.000000" stroke="none" 
	d="
M1506.000000,882.990601 
	C1505.956299,884.270203 1505.912476,885.213928 1505.868774,886.157654 
	C1505.675659,886.145630 1505.482666,886.133606 1505.289673,886.121643 
	C1505.289673,884.036621 1505.289673,881.951660 1505.289673,879.866699 
	C1505.483154,879.860840 1505.676636,879.855042 1505.870117,879.849243 
	C1505.913452,880.784363 1505.956787,881.719543 1506.000000,882.990601 
z"/>
<path fill="#B1B5BC" opacity="1.000000" stroke="none" 
	d="
M1506.903564,900.265015 
	C1507.063232,901.026672 1507.060059,901.591614 1507.056885,902.156555 
	C1506.503540,901.788696 1505.950195,901.420776 1505.396851,901.052979 
	C1505.844971,900.724731 1506.292969,900.396484 1506.903564,900.265015 
z"/>
<path fill="#B1B5BC" opacity="1.000000" stroke="none" 
	d="
M1505.139648,893.065674 
	C1505.154907,892.434204 1505.225830,891.992737 1505.296753,891.551270 
	C1505.470825,891.595581 1505.644775,891.639954 1505.818726,891.684265 
	C1505.610840,892.208069 1505.403076,892.731934 1505.139648,893.065674 
z"/>
<path fill="#B1B5BC" opacity="1.000000" stroke="none" 
	d="
M1505.510376,861.509521 
	C1505.489258,861.518005 1505.531494,861.500977 1505.510376,861.509521 
z"/>
</svg>