<svg xmlns="http://www.w3.org/2000/svg" width="863" height="1216" viewBox="0 0 863 1216">
<g>

<path d="M 506.75 449.80 C507.32,453.90 509.57,458.43 512.67,461.53 C513.48,462.34 513.77,463.00 513.32,463.01 C512.91,463.01 514.12,463.95 516.07,465.15 C513.93,464.88 509.43,467.52 489.43,479.27 L 489.42 479.27 C486.74,480.85 483.78,482.59 480.50,484.51 C472.25,489.34 460.91,495.92 455.29,499.13 C449.68,502.34 441.92,506.99 438.05,509.47 L 431.02 513.98 L 429.48 510.29 C428.63,508.27 426.77,505.07 425.34,503.20 C423.22,500.42 422.99,499.61 424.12,498.86 C428.88,495.67 485.07,463.03 501.80,453.74 C505.15,451.88 506.38,451.11 506.75,449.80 ZM 506.55 445.46 C505.88,443.18 503.33,441.60 490.50,433.92 L 506.50 443.50 ZM 518.91 466.86 L 521.00 468.11 L 521.00 468.23 Z" fill="rgb(58,186,117)"/>
<path d="M 772.78 1093.44 C771.82,1092.48 773.17,1089.00 774.50,1089.00 C775.83,1089.00 777.18,1092.48 776.22,1093.44 C775.92,1093.75 775.14,1094.00 774.50,1094.00 C773.86,1094.00 773.08,1093.75 772.78,1093.44 Z" fill="rgb(80,84,95)"/>
<path d="M 392.49 688.19 C385.07,684.72 380.08,676.87 379.97,668.50 C379.97,668.09 379.97,667.74 379.91,667.40 C379.50,665.06 376.28,663.20 349.00,647.26 C336.39,639.89 311.75,625.47 301.50,619.45 L 300.52 618.88 C292.13,613.95 289.34,612.31 286.63,612.44 C285.17,612.50 283.73,613.08 281.46,613.93 C274.21,616.64 268.67,615.98 262.23,611.63 C255.51,607.08 252.75,601.35 253.20,592.89 C253.49,587.47 254.07,585.60 256.41,582.52 C257.99,580.46 260.79,577.88 262.63,576.79 L 265.98 574.81 L 265.41 521.39 L 264.84 467.97 L 259.49 462.62 C253.59,456.72 252.42,453.40 253.24,444.87 C254.54,431.37 268.81,423.49 282.94,428.48 L 287.13 429.96 L 295.82 424.67 C300.59,421.77 316.42,412.48 331.00,404.04 C375.88,378.04 379.93,375.92 380.09,373.55 C380.10,373.31 380.08,373.07 380.06,372.81 C380.03,372.57 380.01,372.31 380.01,372.00 C380.03,365.97 384.29,358.41 389.55,355.07 C395.61,351.23 403.14,350.19 408.56,352.46 C416.21,355.66 421.69,363.11 422.22,371.02 C422.50,375.24 422.53,375.27 432.50,381.20 C438.00,384.47 443.17,387.56 444.00,388.07 C444.83,388.57 451.35,392.32 458.50,396.38 C472.39,404.29 473.57,404.97 499.22,420.08 L 515.95 429.92 L 519.44 428.46 C524.09,426.52 533.30,426.60 537.30,428.61 C541.34,430.65 545.79,434.76 547.49,438.01 C549.58,442.01 550.28,449.23 549.03,453.88 C547.82,458.38 542.12,465.51 538.92,466.52 C537.06,467.12 537.00,468.74 537.00,520.93 L 537.00 574.73 L 540.88 577.30 C546.12,580.77 549.51,587.76 549.47,595.00 C549.37,610.12 533.96,619.80 519.99,613.50 L 515.70 611.56 L 508.75 615.36 C504.92,617.44 496.33,622.42 489.65,626.42 C482.97,630.42 469.85,638.10 460.50,643.48 C451.15,648.87 438.77,656.09 433.00,659.54 L 422.50 665.80 L 421.95 670.65 C420.67,681.98 413.39,689.12 402.50,689.73 C398.17,689.97 395.39,689.54 392.49,688.19 ZM 317.21 560.40 C320.90,558.03 325.40,555.34 327.21,554.42 C329.02,553.50 335.67,549.71 342.00,546.00 C348.33,542.29 359.41,535.79 366.63,531.57 L 379.76 523.90 L 380.24 518.88 C380.83,512.69 384.96,506.44 390.54,503.27 C395.27,500.59 406.42,500.12 410.80,502.41 C416.39,505.34 420.27,510.63 422.06,517.73 L 423.76 524.50 L 432.63 529.83 C437.51,532.76 448.48,539.12 457.00,543.97 C465.52,548.82 479.89,557.11 488.93,562.39 C497.96,567.66 505.55,571.79 505.79,571.54 C506.03,571.30 505.34,569.62 504.25,567.80 C503.16,565.99 500.92,562.03 499.28,559.00 C492.44,546.37 484.42,532.11 481.00,526.50 C479.00,523.20 475.22,516.57 472.61,511.77 L 467.86 503.04 L 472.61 500.03 C478.25,496.45 480.91,495.50 482.01,496.65 C482.98,497.67 489.84,509.49 502.81,532.50 C516.40,556.61 519.59,561.52 520.37,559.49 C520.71,558.58 521.00,537.67 521.00,513.03 L 521.00 468.11 L 518.91 466.86 L 518.54 466.62 C517.72,466.08 517.25,465.58 516.67,465.32 C516.49,465.24 516.29,465.18 516.07,465.15 C514.12,463.95 512.91,463.01 513.32,463.01 C513.77,463.00 513.48,462.34 512.67,461.53 C509.57,458.43 507.32,453.90 506.75,449.80 C506.94,449.13 506.90,448.32 506.80,447.15 C506.75,446.50 506.69,445.97 506.55,445.46 L 506.50 443.50 L 490.50 433.92 L 490.50 433.91 C462.12,416.91 426.94,396.72 426.49,397.18 C426.25,397.42 427.00,399.39 428.16,401.56 C433.84,412.19 455.51,450.81 457.02,453.00 C459.15,456.09 463.00,463.64 463.00,464.71 C463.00,465.71 450.28,472.62 449.64,471.97 C449.37,471.71 445.59,465.20 441.23,457.50 C427.83,433.84 413.89,409.63 412.15,407.00 C410.60,404.65 410.47,407.13 410.00,447.98 L 409.50 491.47 L 401.50 491.30 L 393.50 491.14 L 393.24 448.57 C393.10,425.16 392.62,406.00 392.18,406.00 C390.90,406.00 349.00,478.50 349.00,480.71 C349.00,481.27 351.59,483.10 354.75,484.79 C357.91,486.47 364.88,490.52 370.23,493.79 C379.45,499.40 379.87,499.81 378.15,501.36 C377.16,502.26 375.29,505.25 374.00,508.00 C372.71,510.75 371.37,513.00 371.01,513.00 C370.65,513.00 365.44,510.04 359.43,506.41 C347.15,499.02 341.55,496.00 340.08,496.00 C339.53,496.00 337.99,497.91 336.66,500.25 C335.33,502.59 329.17,513.50 322.96,524.50 C316.76,535.50 308.38,550.32 304.34,557.43 C300.30,564.55 297.00,570.77 297.00,571.27 C297.00,572.30 307.24,566.78 317.21,560.40 ZM 242.70 830.37 C242.31,829.98 242.00,807.43 242.00,780.26 L 242.00 730.85 L 268.75 731.21 C293.99,731.54 295.83,731.69 301.36,733.89 C313.00,738.53 319.03,747.65 319.80,761.77 C320.22,769.51 320.05,770.46 317.07,776.52 C315.01,780.69 312.15,784.48 309.03,787.17 C307.17,788.77 305.86,789.57 305.33,790.72 C304.39,792.79 306.00,796.02 311.54,807.17 C312.36,808.83 313.28,810.67 314.28,812.70 C318.95,822.16 322.52,830.14 322.22,830.45 C321.92,830.75 316.54,831.00 310.27,831.00 L 298.88 831.00 L 293.07 818.75 C289.87,812.01 286.10,803.91 284.68,800.75 L 282.11 795.00 L 264.05 795.00 L 263.50 830.50 L 253.45 830.78 C247.92,830.94 243.08,830.75 242.70,830.37 ZM 613.00 731.00 L 637.84 731.00 L 646.59 746.75 C666.16,781.94 673.74,794.93 674.35,794.31 C674.71,793.96 675.00,779.57 675.00,762.33 L 675.00 731.00 L 696.00 731.00 L 696.00 831.06 L 683.75 830.78 L 671.50 830.50 L 664.61 818.50 C660.82,811.90 653.00,797.95 647.23,787.50 C641.46,777.05 636.23,767.87 635.62,767.09 C634.79,766.05 634.37,773.97 634.00,798.09 L 633.50 830.50 L 613.00 831.07 ZM 330.00 830.12 C330.00,828.53 358.40,746.02 363.17,733.75 L 364.24 731.00 L 378.12 731.00 C385.75,731.00 392.00,731.14 392.00,731.30 C392.00,731.47 394.05,737.43 396.56,744.55 C399.07,751.67 402.40,761.33 403.97,766.00 C406.50,773.58 420.25,812.52 424.40,823.88 C424.47,824.06 424.53,824.24 424.60,824.41 C425.65,827.29 426.25,828.93 425.69,829.84 C424.94,831.04 422.15,830.97 415.67,830.81 C415.37,830.80 415.07,830.79 414.75,830.78 L 403.51 830.50 L 400.69 821.50 C399.14,816.55 397.68,811.93 397.46,811.23 C397.14,810.25 392.68,810.02 377.80,810.23 L 358.56 810.50 L 352.29 830.50 L 341.15 830.78 C334.63,830.95 330.00,830.67 330.00,830.12 ZM 464.25 831.48 C455.54,829.59 448.82,825.64 442.18,818.50 C432.81,808.43 428.84,794.64 429.70,775.19 C430.56,756.00 439.44,741.34 454.79,733.78 C460.68,730.88 462.50,730.50 471.79,730.15 C477.91,729.92 484.63,730.29 488.14,731.03 C501.50,733.86 513.90,746.70 515.66,759.51 L 516.27 764.00 L 495.32 764.00 L 492.40 758.30 C488.49,750.65 484.78,748.50 475.50,748.50 C464.57,748.51 458.21,753.11 453.40,764.50 C451.08,770.01 451.06,789.65 453.38,796.63 C458.56,812.24 477.62,819.17 489.56,809.77 C492.51,807.45 495.94,800.77 495.98,797.28 C496.00,795.15 495.61,795.06 485.25,794.78 L 474.50 794.50 L 473.92 777.00 L 518.30 777.00 L 517.69 788.25 C516.79,804.78 514.34,812.30 507.34,820.05 C497.80,830.61 480.88,835.10 464.25,831.48 ZM 106.61 830.17 C106.30,829.68 106.16,807.28 106.28,780.39 L 106.50 731.50 L 117.25 731.22 L 128.00 730.93 L 128.00 770.04 L 146.75 769.77 L 165.50 769.50 L 166.04 731.00 L 188.02 731.00 L 187.50 830.50 L 166.50 830.50 L 166.23 809.75 L 165.96 789.00 L 128.04 789.00 L 127.50 830.50 L 117.33 830.78 C111.74,830.94 106.91,830.67 106.61,830.17 ZM 421.79 617.50 C426.73,608.70 435.94,592.50 442.25,581.50 C453.70,561.54 453.72,561.50 451.61,559.81 C447.89,556.82 417.76,539.68 415.47,539.24 C414.25,539.01 411.87,539.53 410.18,540.41 C406.16,542.49 398.70,542.44 392.73,540.30 L 387.96 538.59 L 381.73 541.77 C373.68,545.89 351.87,558.75 350.26,560.34 C349.26,561.31 350.25,563.70 355.06,572.03 C358.39,577.79 367.73,593.94 375.82,607.92 C383.91,621.90 391.08,633.53 391.76,633.75 C392.73,634.08 393.00,625.18 393.00,592.58 L 393.00 551.00 L 410.00 551.00 L 410.00 593.71 C410.00,630.28 410.20,636.22 411.39,634.96 C412.16,634.16 416.84,626.30 421.79,617.50 ZM 531.97 806.75 C531.88,742.26 532.05,732.59 533.28,731.80 C533.95,731.38 548.80,731.02 566.29,731.02 L 598.08 731.00 L 597.50 749.50 L 575.22 749.77 L 552.93 750.04 L 553.22 760.27 L 553.50 770.50 L 573.25 770.77 L 593.00 771.04 L 593.00 789.00 L 590.25 789.11 C588.74,789.17 579.85,789.28 570.50,789.36 L 553.50 789.50 L 553.50 811.50 L 576.25 811.77 L 599.00 812.04 L 599.00 831.00 L 532.00 831.00 ZM 347.70 449.25 C354.83,436.74 364.34,420.09 368.83,412.25 C373.32,404.41 377.00,397.74 377.00,397.43 C377.00,396.12 371.65,398.81 357.02,407.49 C348.49,412.56 333.62,421.34 324.00,427.01 C298.09,442.26 295.18,443.80 294.97,445.65 C294.94,445.88 294.95,446.12 294.97,446.39 L 294.97 446.39 C294.99,446.59 295.00,446.81 295.00,447.05 C295.00,448.96 295.77,450.46 297.26,451.43 C303.25,455.36 332.64,471.97 333.62,471.98 C334.24,471.99 340.58,461.76 347.70,449.25 ZM 440.00 636.93 C446.93,632.65 488.43,608.28 498.25,602.72 C506.36,598.13 507.00,597.54 506.97,594.63 C506.94,591.64 506.19,591.07 490.17,581.82 C472.69,571.73 468.21,569.40 467.66,570.09 C467.48,570.31 462.81,578.38 457.29,588.00 C437.19,622.99 426.07,642.66 425.42,644.36 C424.75,646.11 426.90,645.01 440.00,636.93 ZM 372.79 635.25 C369.97,630.44 364.21,620.42 359.98,613.00 C342.68,582.63 335.29,570.49 333.93,570.23 C333.14,570.08 325.98,573.84 318.00,578.59 C310.02,583.34 301.57,588.18 299.20,589.34 C295.41,591.20 294.94,591.79 295.20,594.43 C295.46,597.01 296.63,598.07 304.00,602.35 C308.67,605.06 322.40,613.01 334.50,620.02 C346.60,627.02 360.77,635.28 366.00,638.37 C371.23,641.45 376.04,643.98 376.70,643.99 C377.37,644.00 375.60,640.06 372.79,635.25 ZM 290.25 549.25 C293.82,542.79 301.83,528.72 308.05,518.00 C323.06,492.12 324.97,488.68 324.95,487.50 C324.95,486.95 321.02,484.20 316.22,481.38 C311.42,478.56 303.61,473.95 298.86,471.13 C290.09,465.92 287.40,465.18 283.93,467.04 C282.06,468.04 282.00,469.62 282.00,514.54 C282.00,540.62 282.39,561.00 282.88,561.00 C283.36,561.00 286.68,555.71 290.25,549.25 ZM 204.70 830.37 C204.31,829.98 204.00,807.47 204.00,780.33 L 204.00 731.00 L 226.02 731.00 L 225.50 830.50 L 215.45 830.78 C209.92,830.94 205.08,830.75 204.70,830.37 ZM 291.34 774.70 C296.08,771.59 298.16,767.20 297.72,761.24 C297.00,751.50 292.33,749.01 274.75,749.01 L 264.00 749.00 L 264.00 762.33 C264.00,769.67 264.34,776.01 264.75,776.43 C265.16,776.84 270.70,777.03 277.04,776.84 C286.07,776.57 289.19,776.11 291.34,774.70 ZM 389.45 790.07 C389.77,789.56 389.39,787.20 388.61,784.82 C387.83,782.45 385.30,774.42 382.98,767.00 C380.67,759.58 378.41,753.11 377.96,752.63 C377.52,752.14 376.48,753.94 375.67,756.63 C374.85,759.31 372.34,767.44 370.09,774.70 C367.84,781.96 366.00,788.60 366.00,789.45 C366.00,790.76 367.78,791.00 377.44,791.00 C383.73,791.00 389.14,790.58 389.45,790.07 Z" fill="rgb(88,100,214)"/>
<path d="M 550.14 907.93 C545.99,907.04 543.14,904.46 544.64,902.96 C545.37,902.23 546.63,902.45 548.83,903.71 C551.70,905.34 552.22,905.37 554.73,903.97 C557.29,902.54 560.00,897.67 558.87,896.54 C558.59,896.26 556.95,896.57 555.22,897.22 C547.86,900.00 542.00,893.84 542.00,883.30 C542.00,879.63 542.63,875.69 543.47,874.06 C545.84,869.47 553.56,867.96 557.75,871.26 C558.59,871.92 559.00,871.88 559.00,871.12 C559.00,870.51 559.90,870.00 561.00,870.00 C562.91,870.00 563.00,870.67 563.00,885.25 C562.99,898.47 562.74,900.91 561.09,903.62 C558.83,907.32 554.77,908.92 550.14,907.93 ZM 556.78 892.44 C558.76,891.06 559.00,890.02 559.00,882.98 C559.00,874.23 558.15,873.00 552.12,873.00 C547.89,873.00 546.00,876.12 546.00,883.09 C546.00,892.19 550.97,896.51 556.78,892.44 ZM 177.60 897.26 C177.27,896.94 177.00,890.67 177.00,883.33 C177.00,870.67 177.10,870.00 179.00,870.00 C180.10,870.00 181.00,870.48 181.00,871.06 C181.00,871.65 181.98,871.43 183.22,870.56 C186.36,868.36 189.00,868.57 189.00,871.00 C189.00,872.25 188.33,873.00 187.22,873.00 C186.24,873.00 184.44,873.70 183.22,874.56 C181.17,875.99 181.00,876.90 181.00,886.45 C181.00,894.39 180.68,896.91 179.60,897.32 C178.83,897.62 177.93,897.59 177.60,897.26 ZM 199.50 897.05 C195.11,895.23 192.64,891.22 192.23,885.24 C191.74,878.09 193.86,872.64 197.95,870.52 C205.17,866.79 211.39,870.10 212.92,878.48 C213.42,881.22 213.62,883.81 213.36,884.23 C213.10,884.66 209.08,885.00 204.44,885.00 C195.64,885.00 195.05,885.35 197.16,889.32 C199.69,894.06 204.12,895.28 208.49,892.41 C210.86,890.86 213.00,891.17 213.00,893.07 C213.00,894.61 206.73,898.00 204.00,897.93 C202.62,897.90 200.60,897.50 199.50,897.05 ZM 209.15 878.00 C208.62,874.15 207.02,872.87 203.18,873.20 C200.80,873.41 199.08,874.33 197.73,876.15 C194.85,880.02 196.20,881.14 203.34,880.80 C209.27,880.51 209.49,880.41 209.15,878.00 ZM 235.32 896.99 C230.92,895.22 229.53,888.04 232.80,884.00 C234.14,882.34 236.10,881.62 240.55,881.14 C245.78,880.58 246.54,880.22 246.83,878.19 C247.31,874.81 245.26,873.00 240.93,873.00 C238.17,873.00 236.70,873.59 235.62,875.13 C234.65,876.51 233.54,877.04 232.45,876.62 C230.95,876.04 230.93,875.74 232.24,873.74 C234.49,870.32 238.01,868.87 242.85,869.35 C249.76,870.03 250.43,871.31 251.00,885.04 C251.49,896.80 251.46,897.00 249.33,897.00 C248.14,897.00 246.99,896.47 246.77,895.81 C246.49,894.97 245.67,895.11 243.96,896.31 C241.34,898.15 238.71,898.36 235.32,896.99 ZM 245.00 892.00 C246.11,890.89 247.00,888.67 247.00,887.00 C247.00,884.16 246.79,884.00 242.93,884.00 C237.30,884.00 235.00,885.45 235.00,888.99 C235.00,893.90 241.23,895.77 245.00,892.00 ZM 261.03 895.19 C258.02,892.17 258.00,892.08 258.00,881.08 C258.00,870.67 258.12,870.00 260.00,870.00 C261.87,870.00 262.00,870.67 262.00,880.35 C262.00,889.10 262.28,890.94 263.83,892.35 C266.12,894.42 268.91,894.45 271.78,892.44 C273.83,891.01 274.00,890.10 274.00,880.55 C274.00,870.46 274.45,869.00 277.58,869.00 C277.81,869.00 278.00,875.29 278.00,882.98 L 278.00 896.95 L 274.25 896.89 C272.19,896.86 269.05,897.14 267.28,897.52 C264.54,898.11 263.61,897.76 261.03,895.19 ZM 289.25 896.47 C287.15,894.99 287.00,894.16 287.00,883.94 L 287.00 873.00 L 284.50 873.00 C281.35,873.00 281.13,870.26 284.25,869.82 C285.97,869.57 286.57,868.74 286.81,866.25 C287.05,863.81 287.61,863.00 289.06,863.00 C290.61,863.00 291.00,863.70 291.00,866.50 C291.00,869.60 291.30,870.00 293.58,870.00 C296.74,870.00 296.36,872.35 293.14,872.82 C291.01,873.14 290.94,873.49 291.22,883.32 C291.49,893.09 291.59,893.51 293.81,893.83 C295.34,894.04 296.01,894.72 295.80,895.83 C295.37,898.09 292.01,898.42 289.25,896.47 ZM 307.42 897.03 C306.27,896.57 304.14,894.76 302.67,893.02 C300.40,890.32 300.00,888.91 300.00,883.57 C300.00,874.90 302.69,870.86 309.31,869.58 C313.40,868.78 314.44,868.93 316.78,870.67 C320.68,873.57 321.97,876.70 321.99,883.30 C322.00,890.16 320.09,894.38 316.03,896.48 C312.79,898.16 310.56,898.30 307.42,897.03 ZM 316.08 891.42 C318.00,889.37 318.50,887.77 318.50,883.63 C318.50,876.55 316.16,873.00 311.48,873.00 C306.05,873.00 304.00,875.76 304.00,883.05 C304.00,888.13 304.39,889.48 306.45,891.55 C309.62,894.71 313.03,894.66 316.08,891.42 ZM 360.42 896.11 C356.17,893.52 354.68,889.36 355.18,881.48 C355.67,873.88 358.28,870.31 364.05,869.39 C371.83,868.15 376.99,873.51 377.00,882.85 C377.00,889.34 374.94,894.01 371.08,896.29 C367.35,898.50 364.25,898.45 360.42,896.11 ZM 370.93 891.37 C372.47,889.41 373.00,887.28 373.00,883.09 C373.00,875.62 371.18,873.00 366.00,873.00 C360.75,873.00 359.00,875.60 359.00,883.41 C359.00,888.15 359.44,889.84 361.17,891.69 C364.14,894.84 368.30,894.71 370.93,891.37 ZM 430.19 895.97 C424.73,892.65 422.71,885.19 425.01,876.90 C426.28,872.34 428.78,870.07 433.36,869.33 C441.61,867.99 446.45,873.26 446.39,883.50 C446.34,890.54 445.05,893.39 440.69,896.05 C436.64,898.51 434.33,898.50 430.19,895.97 ZM 438.96 893.02 C443.04,890.84 444.19,881.46 441.01,876.25 C438.35,871.88 433.21,871.65 429.97,875.75 C426.94,879.60 427.51,889.38 430.94,892.15 C433.47,894.20 436.20,894.50 438.96,893.02 ZM 455.56 895.65 C453.11,893.20 453.00,892.60 453.00,881.55 C453.00,870.67 453.12,870.00 455.00,870.00 C456.88,870.00 457.00,870.67 457.00,880.83 C457.00,891.45 457.05,891.69 459.58,893.04 C461.79,894.23 462.53,894.21 464.83,892.93 C467.43,891.47 467.51,891.16 467.78,880.71 C468.05,870.82 468.22,870.00 470.03,870.00 C471.89,870.00 472.00,870.74 472.00,883.50 L 472.00 897.00 L 468.75 896.96 C466.96,896.93 463.84,897.20 461.81,897.56 C458.69,898.10 457.71,897.80 455.56,895.65 ZM 484.50 897.10 C482.17,896.10 479.57,893.25 478.68,890.75 C478.20,889.39 478.61,889.00 480.53,889.00 C481.89,889.00 483.00,889.42 483.00,889.93 C483.00,893.40 490.59,895.40 492.95,892.56 C495.55,889.42 493.79,886.84 487.53,884.62 C480.22,882.02 477.95,878.95 479.89,874.27 C481.53,870.32 485.13,868.75 490.66,869.58 C494.95,870.22 498.00,872.78 498.00,875.72 C498.00,877.75 494.61,877.20 493.20,874.94 C492.21,873.36 491.07,872.96 488.31,873.19 C481.09,873.81 481.97,880.02 489.46,881.43 C497.45,882.92 500.74,890.08 495.64,894.87 C493.02,897.33 487.56,898.43 484.50,897.10 ZM 517.92 895.08 C514.80,891.95 514.34,889.55 516.11,885.66 C517.54,882.53 520.96,881.00 526.55,881.00 C530.59,881.00 531.00,880.78 531.00,878.58 C531.00,874.08 530.01,873.00 525.90,873.00 C523.10,873.00 521.67,873.56 520.77,875.00 C519.37,877.24 516.00,877.72 516.00,875.67 C516.00,873.10 520.80,869.78 525.25,869.27 C528.86,868.87 530.10,869.20 532.28,871.14 C534.80,873.38 534.96,874.12 535.53,885.75 C536.10,897.30 536.03,897.95 534.32,897.32 C533.32,896.95 532.21,896.22 531.86,895.69 C531.48,895.13 530.26,895.40 528.89,896.37 C525.29,898.89 521.26,898.41 517.92,895.08 ZM 528.93 892.25 C530.12,891.29 531.27,889.04 531.50,887.25 L 531.90 884.00 L 527.28 884.00 C519.98,884.00 516.91,887.91 521.00,892.00 C523.46,894.46 526.11,894.55 528.93,892.25 ZM 576.39 897.02 C571.20,894.92 568.32,887.99 569.47,880.34 C570.39,874.20 574.25,870.04 579.70,869.31 C583.40,868.82 584.26,869.10 586.83,871.68 C589.73,874.57 591.89,881.76 590.52,883.96 C590.16,884.55 586.17,885.00 581.37,885.00 C573.02,885.00 572.88,885.04 573.51,887.25 C574.41,890.35 578.65,894.00 581.36,894.00 C582.60,894.00 584.49,893.34 585.56,892.53 C588.09,890.62 590.00,890.61 590.00,892.51 C590.00,894.50 584.18,898.01 581.00,897.93 C579.62,897.90 577.55,897.49 576.39,897.02 ZM 586.50 880.00 C586.84,879.46 586.52,877.77 585.80,876.25 C584.79,874.13 583.67,873.43 580.94,873.20 C577.14,872.88 574.81,874.63 573.55,878.75 C572.89,880.92 573.09,881.00 579.37,881.00 C582.95,881.00 586.16,880.55 586.50,880.00 ZM 627.21 895.73 C625.23,893.61 625.00,892.32 625.00,883.19 L 625.00 873.00 L 622.50 873.00 C619.35,873.00 619.13,870.26 622.25,869.82 C623.97,869.57 624.57,868.74 624.81,866.25 C625.04,863.85 625.62,863.00 627.00,863.00 C628.38,863.00 628.96,863.85 629.19,866.25 C629.43,868.77 630.02,869.57 631.81,869.83 C634.64,870.23 634.16,872.38 631.14,872.82 C629.01,873.14 628.94,873.51 629.21,882.82 C629.48,891.80 629.67,892.57 631.78,893.50 C633.03,894.05 633.92,895.17 633.77,896.00 C633.30,898.43 629.61,898.28 627.21,895.73 ZM 644.50 897.05 C642.19,896.11 639.58,893.28 638.68,890.75 C638.20,889.39 638.61,889.00 640.53,889.00 C642.03,889.00 643.00,889.57 643.00,890.46 C643.00,893.88 650.63,895.21 653.23,892.25 C655.84,889.27 653.92,886.71 647.43,884.50 C640.22,882.04 637.95,878.96 639.89,874.27 C641.31,870.83 644.62,869.00 649.41,869.00 C653.31,869.00 658.00,872.32 658.00,875.07 C658.00,877.64 654.85,877.59 653.23,875.00 C651.46,872.16 645.48,872.24 643.93,875.12 C642.44,877.91 644.82,880.21 651.00,881.94 C656.98,883.62 658.00,884.61 658.00,888.69 C658.00,893.38 656.62,895.59 652.87,896.89 C649.22,898.17 647.31,898.20 644.50,897.05 ZM 665.96 896.45 C664.38,894.55 665.55,891.77 667.75,892.19 C669.95,892.61 670.62,896.55 668.63,897.31 C667.81,897.63 666.61,897.24 665.96,896.45 ZM 131.00 878.50 L 131.00 860.00 L 133.46 860.00 C135.85,860.00 135.93,860.23 136.21,868.25 L 136.50 876.50 L 144.50 876.50 L 152.50 876.50 L 152.79 868.25 C153.05,860.82 153.28,860.00 155.04,860.00 C156.92,860.00 157.00,860.79 157.00,878.50 C157.00,896.33 156.93,897.00 155.00,897.00 C153.16,897.00 153.00,896.33 153.00,888.50 L 153.00 880.00 L 144.50 880.00 L 136.00 880.00 L 136.00 888.50 C136.00,896.90 135.97,897.00 133.50,897.00 L 131.00 897.00 L 131.00 878.50 ZM 165.00 883.50 C165.00,870.67 165.10,870.00 167.00,870.00 C168.90,870.00 169.00,870.67 169.00,883.50 C169.00,896.33 168.90,897.00 167.00,897.00 C165.10,897.00 165.00,896.33 165.00,883.50 ZM 328.83 883.75 C329.02,876.46 329.38,870.29 329.63,870.04 C329.88,869.78 330.88,870.07 331.84,870.67 C333.16,871.49 334.07,871.42 335.49,870.38 C338.21,868.39 342.32,868.68 345.37,871.07 C347.95,873.11 348.00,873.37 348.00,885.15 C348.00,895.84 347.82,897.11 346.32,896.82 C344.91,896.55 344.66,895.18 344.70,888.00 C344.72,883.33 344.34,878.04 343.84,876.25 C343.03,873.30 342.58,873.00 339.09,873.00 C333.38,873.00 332.74,874.40 332.93,886.50 C333.09,896.84 333.06,897.00 330.80,897.00 L 328.50 897.00 L 328.83 883.75 ZM 383.00 883.50 C383.00,870.67 383.10,870.00 385.00,870.00 C386.10,870.00 387.00,870.48 387.00,871.06 C387.00,871.65 387.98,871.43 389.22,870.56 C392.06,868.57 396.93,868.56 399.75,870.54 C401.73,871.92 402.25,871.92 404.92,870.54 C408.98,868.44 412.23,868.61 415.37,871.07 C417.95,873.10 418.00,873.38 418.00,885.07 C418.00,896.33 417.89,897.00 416.00,897.00 C414.12,897.00 414.00,896.33 414.00,886.20 C414.00,874.31 413.45,873.00 408.50,873.00 C403.55,873.00 403.00,874.31 403.00,886.20 C403.00,896.33 402.88,897.00 401.00,897.00 C399.14,897.00 399.00,896.33 399.00,887.57 C399.00,875.61 398.10,873.00 393.96,873.00 C387.47,873.00 387.00,873.89 387.00,886.04 C387.00,896.33 386.88,897.00 385.00,897.00 C383.10,897.00 383.00,896.33 383.00,883.50 ZM 596.80 883.50 C596.50,870.07 596.51,870.00 598.75,870.00 C599.99,870.00 601.00,870.48 601.00,871.06 C601.00,871.65 601.98,871.43 603.22,870.56 C606.34,868.37 611.59,868.59 614.00,871.00 C615.78,872.78 616.00,874.33 616.00,885.00 C616.00,894.44 615.71,897.00 614.64,897.00 C613.62,897.00 613.11,894.22 612.58,885.80 C612.19,879.64 611.65,874.23 611.37,873.80 C610.67,872.66 605.22,872.81 602.93,874.04 C601.20,874.96 601.00,876.22 601.00,886.04 C601.00,896.23 600.86,897.00 599.05,897.00 C597.24,897.00 597.09,896.10 596.80,883.50 ZM 166.05 863.56 C164.50,861.69 165.35,859.00 167.50,859.00 C169.73,859.00 170.54,861.89 168.80,863.63 C167.50,864.92 167.18,864.92 166.05,863.56 Z" fill="rgb(194,198,206)"/>
</g>
</svg>