<svg xmlns="http://www.w3.org/2000/svg" width="788" height="525" viewBox="0 0 788 525">
<g>

<path d="M 335.26 426.75 C334.72,426.06 334.01,424.37 333.68,422.98 C333.48,422.14 332.45,419.98 331.04,417.39 C332.71,420.21 334.25,422.81 335.15,424.32 C336.72,426.97 338.00,429.55 338.00,430.07 C338.00,431.46 336.73,431.20 334.02,429.25 C332.68,428.29 329.23,426.15 326.34,424.50 C323.45,422.85 315.11,417.86 307.80,413.40 C302.38,410.10 293.49,404.85 285.44,400.18 C293.19,404.65 301.77,409.63 307.50,412.99 C315.75,417.82 324.98,423.12 328.00,424.77 C333.98,428.04 336.90,428.84 335.26,426.75 ZM 277.15 395.41 C256.67,383.75 245.80,377.57 240.01,373.91 C245.71,377.46 256.30,383.48 276.00,394.76 C276.37,394.97 276.76,395.19 277.15,395.41 Z" fill="rgb(55,62,134)"/>
<path d="M 500.91 185.02 C502.19,192.41 507.04,200.11 512.83,203.69 C510.13,202.55 508.43,203.15 504.09,205.85 C501.56,207.41 493.88,211.97 487.00,215.98 C480.12,219.98 468.20,226.98 460.50,231.52 C452.80,236.07 442.45,242.04 437.50,244.78 C432.55,247.52 423.36,252.97 417.08,256.88 C410.79,260.80 405.37,264.00 405.03,264.00 C404.68,264.00 403.83,262.43 403.14,260.51 C402.45,258.59 400.30,254.68 398.37,251.81 L 394.87 246.61 L 397.16 244.88 C399.19,243.35 416.17,233.43 424.59,228.85 C426.29,227.93 433.49,223.70 440.59,219.47 C453.67,211.66 460.07,207.94 474.50,199.73 C478.90,197.22 484.08,194.24 486.00,193.11 C487.92,191.97 492.11,189.67 495.30,187.98 ZM 496.47 173.26 L 500.50 175.65 L 500.52 177.45 C500.48,177.26 500.42,177.08 500.36,176.90 C499.92,175.76 498.93,174.82 496.47,173.26 ZM 515.92 205.32 L 518.00 206.38 L 518.00 264.52 C518.00,294.50 517.74,319.64 517.41,322.96 C517.74,319.64 518.00,294.53 517.99,264.58 L 517.99 206.50 Z" fill="rgb(51,176,121)"/>
<path d="M 358.45 485.67 C348.39,481.80 342.79,474.64 340.91,463.28 L 339.72 456.09 L 323.11 446.17 C313.97,440.72 298.17,431.42 288.00,425.51 C277.83,419.60 267.70,413.66 265.50,412.30 C255.25,406.00 232.50,392.78 227.85,390.43 L 222.68 387.81 L 217.67 390.15 C210.89,393.32 200.32,393.38 194.41,390.27 C185.64,385.66 180.06,376.33 180.02,366.22 C179.99,356.28 184.59,347.78 192.06,343.97 L 196.00 341.96 L 196.00 274.01 L 196.00 206.05 L 193.11 204.56 C188.90,202.38 182.53,194.72 181.18,190.19 C179.55,184.78 179.70,175.65 181.49,171.38 C183.87,165.66 188.47,160.61 194.03,157.58 C198.83,154.97 199.83,154.80 207.85,155.20 C213.33,155.48 217.69,156.26 219.75,157.35 C222.86,158.98 223.13,158.97 225.75,157.15 C230.93,153.56 275.69,127.29 312.50,106.24 C329.31,96.62 337.08,91.95 339.25,90.15 C340.45,89.15 341.00,87.24 341.01,84.10 C341.03,75.07 347.77,65.35 356.79,61.35 C361.45,59.27 374.46,59.02 378.00,60.94 C387.18,65.90 394.00,76.15 394.00,84.99 L 394.00 89.67 L 408.24 98.09 C416.07,102.71 423.40,106.99 424.54,107.59 C427.35,109.07 468.02,132.72 492.41,147.06 L 512.32 158.76 L 516.41 156.90 C522.14,154.30 533.04,154.38 539.00,157.08 C555.43,164.51 560.07,185.21 548.37,198.89 C546.40,201.18 543.49,203.73 541.90,204.55 L 539.00 206.05 L 539.00 273.89 L 539.00 341.73 L 542.92 344.33 C551.21,349.82 555.77,359.83 554.57,369.96 C552.49,387.74 533.07,398.02 516.63,390.06 C514.06,388.82 511.25,388.07 510.39,388.40 C509.52,388.74 500.19,394.12 489.66,400.36 C469.90,412.06 463.66,415.72 422.00,440.01 C408.52,447.87 396.71,454.79 395.75,455.39 C394.61,456.10 394.00,457.73 394.00,460.06 C394.00,470.17 387.55,480.44 378.56,484.63 C372.92,487.25 363.78,487.73 358.45,485.67 ZM 338.00 430.07 C338.00,429.55 336.72,426.97 335.15,424.32 C333.58,421.67 330.02,415.67 327.25,411.00 C324.47,406.33 321.03,400.36 319.60,397.75 C314.51,388.45 312.19,384.33 304.51,371.00 C296.07,356.36 283.94,335.69 283.48,335.18 C282.87,334.50 276.89,337.78 243.85,356.89 C233.32,362.98 233.20,363.09 233.35,366.64 C233.52,370.63 232.58,370.02 277.50,395.61 C286.85,400.94 300.48,408.95 307.80,413.40 C315.11,417.86 323.45,422.85 326.34,424.50 C329.23,426.15 332.68,428.29 334.02,429.25 C336.73,431.20 338.00,431.46 338.00,430.07 ZM 404.50 427.15 C407.25,425.61 415.80,420.50 423.50,415.80 C437.38,407.33 473.05,386.31 486.50,378.66 C500.96,370.44 501.15,370.28 500.81,366.33 C500.52,362.99 499.94,362.44 491.50,357.55 C486.55,354.68 476.23,348.66 468.57,344.17 C460.90,339.68 453.67,336.00 452.50,336.00 C451.10,336.00 449.81,337.12 448.72,339.25 C446.23,344.17 440.62,354.14 432.52,368.00 C428.51,374.88 421.74,386.80 417.48,394.50 C413.23,402.20 408.45,410.44 406.87,412.80 C405.29,415.17 404.00,417.28 404.00,417.51 C404.00,417.73 402.65,420.20 401.00,423.00 C396.33,430.92 396.80,431.48 404.50,427.15 ZM 357.00 364.44 L 357.00 312.00 L 362.86 312.00 C366.08,312.00 370.81,311.71 373.36,311.36 L 378.00 310.73 L 378.02 363.11 C378.02,391.93 378.43,416.13 378.91,416.89 C379.90,418.46 381.64,416.00 389.61,401.81 C394.81,392.57 396.20,390.12 414.52,358.00 C434.13,323.62 433.36,325.14 431.99,323.48 C430.91,322.18 418.84,314.99 394.00,300.85 C389.33,298.18 384.92,296.00 384.20,296.00 C383.49,296.00 381.56,296.69 379.93,297.54 C378.29,298.38 374.52,299.53 371.55,300.08 C366.78,300.96 365.22,300.76 358.05,298.39 L 349.94 295.72 L 344.72 298.52 C341.85,300.06 335.90,303.44 331.50,306.04 C327.10,308.63 319.23,313.26 314.00,316.31 C299.45,324.82 300.30,323.27 305.37,332.00 C307.76,336.12 318.04,353.90 328.19,371.50 C351.53,411.93 355.22,417.98 356.20,417.37 C356.64,417.10 357.00,393.28 357.00,364.44 ZM 246.83 331.89 C252.70,328.52 261.33,323.41 266.00,320.52 C273.43,315.93 330.27,282.98 336.98,279.38 C339.95,277.78 340.83,275.81 340.94,270.50 C341.10,262.64 348.42,253.23 357.27,249.53 C362.40,247.39 372.82,247.56 378.17,249.88 C387.27,253.82 393.94,263.26 393.98,272.26 C394.00,276.91 394.13,277.11 399.26,280.39 C402.15,282.24 417.11,290.96 432.51,299.77 C447.90,308.58 469.04,320.80 479.49,326.93 C489.93,333.06 498.62,337.63 498.80,337.09 C499.07,336.28 491.66,321.73 487.29,314.50 C486.62,313.40 485.75,311.83 485.34,311.01 C483.78,307.85 471.71,286.50 469.56,283.09 C465.29,276.30 452.00,252.12 452.00,251.13 C452.00,249.68 466.84,241.73 468.42,242.33 C469.16,242.62 471.24,245.47 473.05,248.67 C474.86,251.88 479.86,260.49 484.17,267.82 C488.47,275.14 492.00,281.29 492.00,281.47 C492.00,281.65 496.10,288.93 501.12,297.65 C506.14,306.37 511.14,315.08 512.24,317.00 C515.38,322.49 516.63,324.04 517.34,323.33 C517.70,322.96 518.00,296.50 518.00,264.52 L 518.00 206.38 L 514.01 204.35 C506.78,200.68 500.70,190.37 500.58,181.58 L 500.50 175.65 L 495.50 172.69 C492.75,171.06 489.15,168.95 487.50,167.99 C483.24,165.53 427.29,132.83 416.50,126.49 C402.69,118.37 399.85,116.88 398.86,117.21 C398.36,117.38 401.76,124.15 406.41,132.25 C411.06,140.36 416.64,150.26 418.80,154.25 C422.61,161.28 433.15,179.73 442.04,194.93 C445.57,200.98 446.11,202.51 444.94,203.20 C444.15,203.67 440.49,205.84 436.80,208.02 C433.12,210.21 429.71,212.00 429.22,212.00 C428.74,212.00 425.00,206.07 420.92,198.83 C416.84,191.58 412.38,183.73 411.00,181.38 C406.83,174.26 396.21,155.66 394.80,153.00 C391.08,145.99 380.56,128.88 379.36,127.89 C378.21,126.93 378.00,135.35 378.00,181.38 L 378.00 236.00 L 367.51 236.00 L 357.02 236.00 L 356.76 182.33 C356.59,147.67 356.15,128.55 355.50,128.34 C354.95,128.16 354.01,129.03 353.41,130.26 C352.81,131.49 347.23,141.27 341.00,152.00 C334.78,162.73 326.01,178.02 321.52,186.00 C317.04,193.98 310.58,205.30 307.18,211.17 C303.78,217.03 301.01,222.21 301.03,222.67 C301.06,223.46 326.42,238.89 335.79,243.82 L 340.21 246.15 L 338.19 248.32 C335.79,250.91 331.00,259.75 331.00,261.59 C331.00,264.27 328.97,263.88 321.84,259.86 C317.80,257.58 314.27,255.44 314.00,255.11 C313.73,254.77 312.50,253.94 311.28,253.26 C310.06,252.58 305.11,249.76 300.28,246.99 C295.45,244.22 290.84,242.08 290.02,242.23 C288.69,242.49 283.84,250.73 256.04,300.00 C251.23,308.52 244.53,320.38 241.15,326.34 C237.77,332.31 235.00,337.37 235.00,337.59 C235.00,338.52 236.66,337.72 246.83,331.89 ZM 223.11 316.23 C225.43,311.98 230.72,302.65 234.85,295.50 C238.98,288.35 244.90,278.00 247.99,272.50 C251.09,267.00 256.80,257.10 260.68,250.50 C268.45,237.28 271.00,232.53 271.00,231.26 C271.00,230.79 266.16,227.54 260.25,224.03 C254.34,220.52 244.36,214.58 238.08,210.82 C226.12,203.68 223.55,202.97 219.11,205.59 L 216.42 207.18 L 216.64 239.34 C216.76,257.03 216.89,283.56 216.93,298.31 C216.97,314.83 217.36,324.89 217.94,324.54 C218.46,324.21 220.79,320.48 223.11,316.23 ZM 286.97 204.95 C288.99,201.40 294.17,192.43 298.47,185.00 C302.77,177.57 309.87,165.20 314.25,157.50 C318.63,149.80 324.37,139.90 327.00,135.50 C329.63,131.10 332.96,125.14 334.41,122.25 C338.42,114.23 338.30,114.27 308.50,131.97 C300.80,136.54 289.33,143.31 283.00,147.01 C276.67,150.72 268.80,155.35 265.50,157.31 C262.20,159.27 254.01,164.10 247.29,168.04 C240.57,171.98 234.58,175.80 233.97,176.53 C233.36,177.27 233.01,179.36 233.18,181.18 C233.48,184.24 234.36,185.01 244.50,191.07 C250.55,194.68 258.65,199.36 262.50,201.47 C266.35,203.58 271.22,206.38 273.33,207.71 C277.78,210.51 281.13,211.96 282.40,211.63 C282.89,211.51 284.95,208.50 286.97,204.95 Z" fill="rgb(88,100,213)"/>
</g>
</svg>